<svg xmlns="http://www.w3.org/2000/svg" xmlns:xlink="http://www.w3.org/1999/xlink" viewBox="0 0 1140 822"
    xmlns:v="https://vecta.io/nano">
    <style>
        <![CDATA[
        .r {
            fill: #6fbf4a
        }

        .s {
            fill-rule: evenodd
        }

        .t {
            fill: #d9d9d9
        }

        .u {
            fill: #333
        }

        .v {
            fill: none
        }

        .w {
            stroke: #6fbf4a
        }

        .x {
            fill: #10264d
        }

        .y {
            fill: #fff
        }

        .z {
            stroke-width: 6
        }

        .AA {
            fill: #333
        }

        .AB {
            fill: #aa7354
        }

        .AC {
            fill-opacity: .8
        }

        .AD {
            fill: #292929
        }

        .AE {
            fill: #d3d3d3
        }

        .AF {
            stroke-linejoin: round
        }

        .AG {
            stroke-width: 2
        }

        .AH {
            stroke-linecap: round
        }
        ]]>
    </style>
    <path
        d="M453.7 412.5a24.16 24.16 0 0 0-24.2 24.2v331.6c0 13.4 10.9 24.2 24.2 24.2h659.5a24.16 24.16 0 0 0 24.2-24.2V436.8c0-13.4-10.9-24.2-24.2-24.2H918.7c-.7 0-1.3-.6-1.3-1.3s.6-1.3 1.3-1.3h194.5c14.8 0 26.8 12 26.8 26.8v331.6c0 14.8-12 26.8-26.8 26.8H453.7c-14.8 0-26.8-12-26.8-26.8V436.8c0-14.8 12-26.8 26.8-26.8h202.1c.7 0 1.3.6 1.3 1.3s-.6 1.3-1.3 1.3H453.7zm464.5-14.7h195a24.16 24.16 0 0 0 24.2-24.2V224.1c0-13.4-10.9-24.2-24.2-24.2H453.7a24.16 24.16 0 0 0-24.2 24.2v149.5c0 13.4 10.9 24.2 24.2 24.2h201.6c.7 0 1.3.6 1.3 1.3s-.6 1.3-1.3 1.3H453.7c-14.8 0-26.8-12-26.8-26.8V224.1c0-14.8 12-26.8 26.8-26.8h659.5c14.8 0 26.8 12 26.8 26.8v149.5c0 14.8-12 26.8-26.8 26.8h-195c-.7 0-1.3-.6-1.3-1.3 0-.8.6-1.3 1.3-1.3z"
        class="r s" />
    <g class="AA">
        <use xlink:href="#B" />
        <path d="M113.9 586.5v17.6h2.5v-17.6h-2.5z" />
        <use xlink:href="#B" x="156.2" />
        <path
            d="M270.1 586.5v17.6h5.6c5.2 0 8.8-3.1 8.8-8.8 0-6-3.5-8.8-8.7-8.8h-5.7zm5.8 2c3.8 0 6.1 2.2 6.1 6.8 0 4.4-2.2 6.8-6.1 6.8h-3.3v-13.6h3.3z" />
    </g>
    <g class="r">
        <path
            d="M255.3 716.3v7.8c0 2.5 1.8 4.2 4.6 4.2s4.6-1.6 4.6-4.2v-7.8H263v8c0 1.6-1.1 2.6-3 2.6s-3-1.1-3-2.6v-8h-1.7zm11.6 3.3V731h1.6v-4c.5.8 1.4 1.3 2.7 1.3 2.2 0 3.9-1.6 3.9-4.6 0-2.8-1.5-4.4-3.7-4.4-1.3 0-2.3.6-2.9 1.4l-.2-1.1h-1.4zm6.5 4.1c0 2.2-1 3.2-2.5 3.2s-2.6-1.2-2.6-3.2 1.2-3.1 2.6-3.1 2.5 1 2.5 3.1zm5-7.4h-1.6v11.8h1.6v-11.8zm1.8 7.5c0 2.9 1.8 4.5 4.2 4.5s4.2-1.5 4.2-4.5c0-3.1-1.9-4.5-4.2-4.5s-4.2 1.5-4.2 4.5zm1.7 0c0-2.1 1.1-3.2 2.6-3.2s2.5 1.1 2.5 3.2-1 3.2-2.5 3.2-2.6-1.1-2.6-3.2zm9.8-1.9c.1-.8.7-1.4 1.9-1.4 1.3 0 2 .6 2 1.6v.4l-2.5.4c-2.3.4-3.2 1.3-3.2 2.8 0 1.4 1.1 2.4 2.9 2.4 1.4 0 2.3-.6 2.8-1.4l.2 1.2h1.3v-5.8c0-1.7-1.2-2.9-3.5-2.9-2.1 0-3.5 1-3.6 2.6h1.7zm3.9 2v1.1c0 1.2-1.2 2-2.4 2-1.1 0-1.6-.5-1.6-1.3s.4-1.2 1.9-1.5l2.1-.3zm11.4 4.2v-11.8h-1.6v4.3c-.6-.8-1.4-1.3-2.7-1.3-2.3 0-3.9 1.5-3.9 4.5 0 2.9 1.6 4.4 3.8 4.4 1.3 0 2.3-.6 2.8-1.4l.3 1.2h1.3zm-6.5-4.2c0-2.2 1-3.2 2.5-3.2 1.6 0 2.6 1.2 2.6 3.2 0 1.8-.9 3.1-2.6 3.1-1.4 0-2.5-1.1-2.5-3.1zm21.6-7.6v9.8l-5.6-9.8h-2.2v11.8h1.5v-9.8l5.7 9.8h2.1v-11.8h-1.5zm9.7 9.3c-.2.8-1 1.4-2.1 1.4-1.4 0-2.5-.9-2.6-2.8h6.5c0-3.4-1.6-4.8-4-4.8s-4.1 1.5-4.1 4.5 1.7 4.5 4.2 4.5c2 0 3.4-1.1 3.8-2.7h-1.7zm-4.7-2.7c.2-1.6 1.2-2.3 2.4-2.3 1.3 0 2.2.8 2.4 2.3h-4.8zm18.6-3.3l-1.8 6.8-2-6.8H340l-2 6.8-1.8-6.8h-1.6l2.5 8.5h1.9l2-6.7 2.1 6.7h1.8l2.5-8.5h-1.7z" />
        <use xlink:href="#C" />
        <path
            d="M369.8 725.6c-.2.8-1 1.4-2.1 1.4-1.4 0-2.5-.9-2.6-2.8h6.5c0-3.4-1.6-4.8-4-4.8s-4.1 1.5-4.1 4.5 1.7 4.5 4.2 4.5c2 0 3.4-1.1 3.8-2.7h-1.7zm-4.7-2.7c.2-1.6 1.2-2.3 2.5-2.3s2.2.8 2.4 2.3h-4.9zm13.5-3.3l-2.4 7.2-2.4-7.2h-1.7l3 8.5h2.1l3-8.5h-1.6z" />
        <use xlink:href="#D" />
        <use xlink:href="#E" />
        <use xlink:href="#D" x="12.2" />
        <path
            d="M397.1 723.8c0 2.9 1.8 4.5 4.2 4.5s4.2-1.5 4.2-4.5c0-3.1-1.9-4.5-4.2-4.5s-4.2 1.5-4.2 4.5zm1.6 0c0-2.1 1.1-3.2 2.6-3.2s2.5 1.1 2.5 3.2-1 3.2-2.5 3.2-2.6-1.1-2.6-3.2z" />
        <use xlink:href="#F" />
    </g>
    <g class="AA">
        <path
            d="M72.5 476.5v7.8c0 2.5 1.8 4.2 4.6 4.2s4.6-1.6 4.6-4.2v-7.8h-1.6v8c0 1.6-1.1 2.6-3 2.6s-3-1.1-3-2.6v-8h-1.6zm11.5 3.3v11.4h1.6v-4c.5.8 1.4 1.3 2.7 1.3 2.2 0 3.9-1.6 3.9-4.6 0-2.8-1.5-4.4-3.7-4.4-1.3 0-2.3.6-2.9 1.4l-.2-1.1H84zm6.5 4.2c0 2.2-1 3.2-2.5 3.2s-2.6-1.2-2.6-3.2 1.2-3.1 2.6-3.1c1.5 0 2.5 1 2.5 3.1zm5-7.5H94v11.8h1.6v-11.8zm1.8 7.6c0 2.9 1.8 4.5 4.2 4.5s4.2-1.5 4.2-4.5c0-3.1-1.9-4.5-4.2-4.5s-4.2 1.4-4.2 4.5zm1.7 0c0-2.1 1.1-3.2 2.6-3.2s2.5 1.1 2.5 3.2-1 3.2-2.5 3.2-2.6-1.1-2.6-3.2zm9.8-1.9c.1-.8.7-1.4 1.9-1.4 1.3 0 2 .6 2 1.6v.4l-2.5.4c-2.3.4-3.2 1.3-3.2 2.8 0 1.4 1.1 2.4 2.9 2.4 1.4 0 2.3-.6 2.8-1.4l.2 1.2h1.3v-5.8c0-1.7-1.2-2.9-3.5-2.9-2.1 0-3.5 1-3.6 2.6h1.7zm3.9 1.9v1.1c0 1.2-1.2 2-2.4 2-1.1 0-1.7-.5-1.7-1.3s.4-1.2 1.9-1.5l2.2-.3zm11.4 4.2v-11.8h-1.6v4.3c-.6-.8-1.4-1.3-2.7-1.3-2.3 0-3.9 1.5-3.9 4.5 0 2.9 1.6 4.4 3.8 4.4 1.3 0 2.3-.6 2.8-1.4l.3 1.2h1.3zm-6.5-4.2c0-2.2 1-3.2 2.5-3.2 1.6 0 2.6 1.2 2.6 3.2 0 1.8-.9 3.1-2.6 3.1-1.4 0-2.5-1-2.5-3.1z" />
        <use xlink:href="#G" />
        <path
            d="M142 479.8v11.4h1.6v-4c.5.8 1.4 1.3 2.7 1.3 2.2 0 3.9-1.6 3.9-4.6 0-2.8-1.5-4.4-3.7-4.4-1.3 0-2.3.6-2.9 1.4l-.2-1.1H142zm6.5 4.2c0 2.2-1 3.2-2.5 3.2s-2.6-1.2-2.6-3.2 1.2-3.1 2.6-3.1 2.5 1 2.5 3.1zm9.2 1.9c-.2.8-1 1.4-2.1 1.4-1.4 0-2.5-.9-2.6-2.8h6.5c0-3.4-1.6-4.8-4-4.8s-4.1 1.5-4.1 4.5 1.7 4.5 4.2 4.5c2 0 3.4-1.1 3.8-2.7h-1.7zm-4.6-2.7c.2-1.6 1.2-2.3 2.4-2.3 1.3 0 2.2.8 2.4 2.3h-4.8zm13.9 2.4c-.2 1.1-.9 1.6-2 1.6-1.3 0-2.4-1-2.4-3.1 0-2.3 1-3.3 2.4-3.3 1 0 1.7.5 1.9 1.4h1.7c-.3-1.7-1.7-2.8-3.7-2.8-2.4 0-4 1.7-4 4.6s1.8 4.4 4 4.4c2.1 0 3.5-1.3 3.7-3H167zM0 459c.3 2.2 2.2 3.5 4.8 3.5 2.9 0 4.6-1.7 4.6-3.5s-.9-2.8-4.2-3.7c-2.7-.8-3.1-1.2-3.1-2.1s.8-1.6 2.5-1.6c1.8 0 2.8.7 2.9 1.8h1.7c-.3-2-2.1-3.2-4.7-3.2-2.7 0-4.2 1.3-4.2 3 0 1.6.8 2.6 3.6 3.3 3.2.9 3.7 1.4 3.7 2.5s-1 2.1-3 2.1c-1.7 0-2.8-.8-3-2.2H0zm11.2-5.2v11.4h1.6v-4c.5.8 1.4 1.3 2.7 1.3 2.2 0 3.9-1.6 3.9-4.6 0-2.8-1.5-4.4-3.7-4.4-1.3 0-2.3.6-2.9 1.4l-.2-1.1h-1.4zm6.6 4.1c0 2.2-1 3.2-2.5 3.2s-2.6-1.2-2.6-3.2 1.2-3.1 2.6-3.1c1.4.1 2.5 1.1 2.5 3.1zm9.2 1.9c-.2.8-1 1.4-2.1 1.4-1.4 0-2.5-.9-2.6-2.8h6.5c0-3.4-1.6-4.8-4-4.8s-4.1 1.5-4.1 4.5 1.7 4.5 4.2 4.5c2 0 3.4-1.1 3.8-2.7H27zm-4.6-2.7c.2-1.6 1.2-2.3 2.5-2.3s2.2.8 2.4 2.3h-4.9z" />
        <use xlink:href="#H" />
        <path d="M52.4 450.5l-3.6 10.2-3.6-10.2h-1.8l4.3 11.8h2.1l4.2-11.8h-1.6z" />
        <use xlink:href="#I" />
        <path
            d="M65.6 462.3V458c0-2.1.9-2.9 2-2.9.4 0 .7.1 1 .1v-1.6c-.2 0-.5-.1-.9-.1-.9 0-1.7.5-2.2 1.5l-.2-1.3H64v8.5h1.6z" />
        <use xlink:href="#E" x="-315.5" y="-265.7" />
        <path d="M79.8 452.4v-1.8H78v1.8h1.8zm-.1 9.9v-8.5h-1.6v8.5h1.6z" />
        <use xlink:href="#J" />
        <use xlink:href="#K" />
        <path d="M100.3 463.8h1.5l4.1-13.5h-1.5l-4.1 13.5z" />
        <use xlink:href="#C" x="-246.1" y="-265.8" />
        <use xlink:href="#I" x="63.4" />
        <path d="M132.5 453.8l-2.4 7.2-2.4-7.2H126l3 8.5h2.1l3-8.5h-1.6z" />
        <use xlink:href="#D" x="-246.1" y="-265.8" />
        <use xlink:href="#E" x="-246" y="-265.7" />
        <use xlink:href="#D" x="-233.9" y="-265.8" />
        <use xlink:href="#J" x="69.5" />
        <use xlink:href="#K" x="69.5" />
        <path
            d="M53 211.6c.3 2.2 2.2 3.5 4.8 3.5 2.9 0 4.6-1.7 4.6-3.5s-.9-2.8-4.2-3.7c-2.7-.8-3.1-1.2-3.1-2.1s.8-1.6 2.5-1.6c1.8 0 2.8.7 2.9 1.8h1.7c-.3-2-2.1-3.2-4.7-3.2-2.7 0-4.2 1.3-4.2 3 0 1.6.8 2.6 3.6 3.3 3.2.9 3.7 1.4 3.7 2.5s-1 2.1-3 2.1c-1.7 0-2.8-.8-3-2.2H53z" />
        <use xlink:href="#L" />
        <path
            d="M80 212.4c-.2.8-1 1.4-2.1 1.4-1.4 0-2.5-.9-2.6-2.8h6.5c0-3.4-1.6-4.8-4-4.8s-4.1 1.5-4.1 4.5 1.7 4.5 4.2 4.5c2 0 3.4-1.1 3.8-2.7H80zm-4.6-2.7c.2-1.6 1.2-2.3 2.5-2.3s2.2.8 2.4 2.3h-4.9z" />
        <use xlink:href="#H" x="53" y="-247.5" />
        <path
            d="M108 214.9l-4.8-11.8h-1.9l-4.8 11.8h1.7l1.2-3h5.6l1.2 3h1.8zm-5.8-10.1l2.2 5.8h-4.5l2.3-5.8zm6.9 1.6v5.5c0 2.2 1.2 3.2 3 3.2 1 0 1.9-.4 2.5-1.2l.2 1h1.3v-8.5h-1.6v5.2c0 1.2-.7 2.2-2.1 2.2-1.1 0-1.8-.6-1.8-1.8v-5.6h-1.5z" />
        <use xlink:href="#M" />
        <path
            d="M125.2 214.9v-5.2c0-1.4.9-2.2 2.1-2.2s1.8.6 1.8 1.9v5.5h1.6v-5.5c0-2.1-1.2-3.2-3-3.2-1 0-1.9.4-2.5 1.2v-4.2h-1.6V215h1.6zm7.2-4.3c0 2.9 1.8 4.5 4.2 4.5s4.2-1.5 4.2-4.5c0-3.1-1.9-4.5-4.2-4.5s-4.2 1.5-4.2 4.5zm1.6 0c0-2.1 1.1-3.2 2.6-3.2s2.5 1.1 2.5 3.2-1 3.2-2.5 3.2c-1.4 0-2.6-1.1-2.6-3.2zm10.1 4.3v-4.3c0-2.1.9-2.9 2-2.9.4 0 .7.1 1 .1v-1.6c-.2 0-.5-.1-.9-.1-.9 0-1.7.5-2.2 1.5l-.2-1.3h-1.3v8.5h1.6z" />
        <use xlink:href="#D" x="-233.1" y="-513.2" />
        <use xlink:href="#F" x="-255" y="-513.2" />
        <path
            d="M161.4 215.4c.3 1.6 1.6 2.6 3.8 2.6 2.5 0 3.9-1.4 3.9-3.4v-8.3h-1.3l-.2 1.1c-.5-.8-1.4-1.4-2.8-1.4-2.3 0-3.9 1.6-3.9 4.3s1.8 4.2 3.8 4.2c1.3 0 2.3-.4 2.8-1.1v1.1c0 1.4-.8 2.2-2.4 2.2-1.2 0-2-.5-2.1-1.4h-1.6zm1.3-4.9c0-2 1-3 2.5-3s2.6 1 2.6 3c0 1.7-.9 2.8-2.6 2.8-1.4 0-2.5-1-2.5-2.8z" />
    </g>
    <g class="r">
        <path d="M309.4 440.9l-4.8-11.8h-1.9l-4.8 11.8h1.7l1.2-3h5.6l1.2 3h1.8zm-5.8-10.1l2.2 5.8h-4.5l2.3-5.8z" />
        <use xlink:href="#F" x="-96.7" y="-287.2" />
        <path
            d="M321.2 434.7c.1-.8.7-1.4 1.9-1.4 1.3 0 2 .6 2 1.6v.4l-2.5.4c-2.3.4-3.2 1.3-3.2 2.8 0 1.4 1.1 2.4 2.9 2.4 1.4 0 2.3-.6 2.8-1.4l.2 1.2h1.3v-5.8c0-1.7-1.2-2.9-3.5-2.9-2.1 0-3.5 1-3.6 2.6h1.7zm3.8 1.9v1.1c0 1.2-1.2 2-2.4 2-1.1 0-1.6-.5-1.6-1.3s.4-1.2 1.9-1.5l2.1-.3zm5.4-7.5h-1.6v11.8h1.6v-11.8zm9.4 3.3h-1.6l-2.4 7.2-2.4-7.2h-1.7l3.1 8.5h.5c-.5 1.3-.7 1.9-1.5 1.9-.3 0-.5 0-.8-.1v1.3c.5.1.7.1 1 .1 1.6 0 2.1-1.2 2.8-3.1l3-8.6zm.6 6c.1 1.6 1.5 2.7 3.7 2.7 2.3 0 3.5-1.1 3.5-2.7 0-1.7-1.3-2.3-3.3-2.7-1.6-.4-2-.7-2-1.3s.5-1 1.7-1c1.1 0 1.7.5 1.9 1.2h1.6c-.3-1.5-1.6-2.5-3.5-2.5-2.1 0-3.3 1-3.3 2.4 0 1.3.8 2 2.8 2.4 1.5.3 2.5.6 2.5 1.6 0 .7-.7 1.3-1.9 1.3s-1.9-.4-2.1-1.4h-1.6z" />
        <use xlink:href="#D" x="-32.1" y="-287.2" />
        <use xlink:href="#F" x="-54" y="-287.2" />
        <path
            d="M362.4 441.4c.3 1.6 1.6 2.6 3.8 2.6 2.5 0 3.9-1.4 3.9-3.4v-8.3h-1.3l-.2 1.1c-.5-.8-1.4-1.4-2.8-1.4-2.3 0-3.9 1.6-3.9 4.3s1.8 4.2 3.8 4.2c1.3 0 2.3-.4 2.8-1.1v1.1c0 1.4-.8 2.2-2.4 2.2-1.2 0-2-.5-2.1-1.4h-1.6zm1.3-4.9c0-2 1-3 2.5-3s2.6 1 2.6 3c0 1.7-.9 2.8-2.6 2.8-1.4 0-2.5-1.1-2.5-2.8z" />
        <use xlink:href="#G" x="246" y="-47.4" />
        <use xlink:href="#L" x="323.8" y="226" />
        <use xlink:href="#I" x="343.5" y="-21.4" />
        <use xlink:href="#N" />
        <path d="M353.4 567.9l-4.8-11.8h-1.9l-4.8 11.8h1.7l1.2-3h5.6l1.2 3h1.8zm-5.7-10.1l2.2 5.8h-4.5l2.3-5.8z" />
        <use xlink:href="#F" x="-52.6" y="-160.2" />
        <path
            d="M365.2 561.8c.1-.8.7-1.4 1.9-1.4 1.3 0 2 .6 2 1.6v.4l-2.5.4c-2.3.4-3.2 1.3-3.2 2.8 0 1.4 1.1 2.4 2.9 2.4 1.4 0 2.3-.6 2.8-1.4l.2 1.2h1.3V562c0-1.7-1.2-2.9-3.5-2.9-2.1 0-3.5 1-3.6 2.6h1.7zm3.9 1.9v1.1c0 1.2-1.2 2-2.4 2-1.1 0-1.6-.5-1.6-1.3s.4-1.2 1.9-1.5l2.1-.3zm5.3-7.6h-1.6v11.8h1.6v-11.8zm9.4 3.3h-1.6l-2.4 7.2-2.4-7.2h-1.7l3.1 8.5h.5c-.5 1.3-.7 1.9-1.5 1.9-.3 0-.5 0-.8-.1v1.3a4.14 4.14 0 0 0 1 .1c1.6 0 2.1-1.2 2.8-3.1l3-8.6z" />
        <use xlink:href="#E" x="-0.3" y="-160.1" />
        <use xlink:href="#D" x="11.9" y="-160.2" />
        <use xlink:href="#F" x="-9.9" y="-160.2" />
        <path
            d="M406.5 568.5c.3 1.6 1.6 2.6 3.8 2.6 2.5 0 3.9-1.4 3.9-3.4v-8.3h-1.3l-.2 1.1c-.5-.8-1.4-1.4-2.8-1.4-2.3 0-3.9 1.6-3.9 4.3s1.8 4.2 3.8 4.2c1.3 0 2.3-.4 2.8-1.1v1.1c0 1.4-.8 2.2-2.4 2.2-1.2 0-2-.5-2.1-1.4h-1.6zm1.2-5c0-2 1-3 2.5-3s2.6 1 2.6 3c0 1.7-.9 2.8-2.6 2.8-1.4 0-2.5-1-2.5-2.8zm-81.4 15.1v11.8h7.2v-1.5H328v-10.3h-1.7zm10.3 5.6c.1-.8.7-1.4 1.9-1.4 1.3 0 2 .6 2 1.6v.4l-2.5.4c-2.3.4-3.2 1.3-3.2 2.8 0 1.4 1.1 2.4 2.9 2.4 1.4 0 2.3-.6 2.8-1.4l.2 1.2h1.3v-5.8c0-1.7-1.2-2.9-3.5-2.9-2.1 0-3.5 1-3.6 2.6h1.7zm3.9 1.9v1.1c0 1.2-1.2 2-2.4 2-1.1 0-1.6-.5-1.6-1.3s.4-1.2 1.9-1.5l2.1-.3z" />
        <use xlink:href="#M" x="225.8" y="375.5" />
        <use xlink:href="#I" x="294.9" y="128.1" />
        <use xlink:href="#E" x="-26.5" y="-137.7" />
        <use xlink:href="#M" x="248.8" y="375.5" />
        <path
            d="M376.8 587c.3 2.2 2.2 3.5 4.8 3.5 2.9 0 4.6-1.7 4.6-3.5s-.9-2.8-4.2-3.7c-2.7-.8-3.1-1.2-3.1-2.1s.8-1.6 2.5-1.6c1.8 0 2.8.7 2.9 1.8h1.7c-.3-2-2.1-3.2-4.7-3.2-2.7 0-4.2 1.3-4.2 3 0 1.6.9 2.6 3.6 3.3 3.2.9 3.7 1.4 3.7 2.5s-1 2.1-3 2.1c-1.7 0-2.8-.8-3-2.2h-1.6zm11.3-5.2v11.4h1.6v-4c.5.8 1.4 1.3 2.7 1.3 2.2 0 3.9-1.6 3.9-4.6 0-2.8-1.5-4.4-3.7-4.4-1.3 0-2.3.6-2.9 1.4l-.2-1.1h-1.4zm6.5 4.2c0 2.2-1 3.2-2.5 3.2s-2.6-1.2-2.6-3.2 1.2-3.1 2.6-3.1 2.5 1 2.5 3.1z" />
        <use xlink:href="#I" x="343.5" y="128.1" />
        <use xlink:href="#N" y="149.5" />
    </g>
    <path
        d="M89.7 574.3c6.4-7.6 15.9-12.5 26.6-12.5 7.2 0 14 2.2 19.7 6.2l-4.5-18.8 22.2-5.4c-10.9-7.9-23.8-12.1-37.5-12.1-19.2 0-36.5 8.5-48.4 22l2.2 22.5 19.7-1.9h0z"
        class="u" />
    <path
        d="M284.1 575.5c4.6 5.9 7.3 13.4 7.3 21.5 0 12.6-6.6 23.6-16.4 29.8l-1.4 17.2 25.5 2.2c13.6-12 22.2-29.6 22.2-49.2 0-16.6-6.2-31.7-16.3-43.2l-2.3 23.6-18.6-1.9h0z"
        class="t AC" />
    <path
        d="M144.6 618.1l-3.1 3.1-.2.2c-6.6 6.9-15.5 10.8-25.1 10.8-6.7 0-13-2-18.4-5.3l1.5 18.1-24.5 2c11.2 9.5 25.7 15.2 41.5 15.2 14.9 0 29-5.1 40.4-14.4l5.4-26.1-17.5-3.6h0z"
        class="u" />
    <path
        d="M240.7 550.4l-5.3 18.7c6.1-4.7 13.4-7.3 21.2-7.3 10.7 0 20.3 4.9 26.6 12.6l18.6 1.8 2.3-23.5c-11.8-12.9-28.7-21-47.5-21-13.5 0-26.5 4.2-37.3 12l21.6 6.2-.2.5h0z"
        class="t AC" />
    <path
        d="M96.9 626.1A35.09 35.09 0 0 1 81.5 597c0-8.1 2.8-15.6 7.4-21.6l-19.6 2-2.3-22.6c-9.6 11.4-15.4 26.1-15.4 42.2 0 19.6 8.6 37.1 22.1 49.1l24.6-2.1-1.4-17.9h0z"
        class="u" />
    <path
        d="M273.9 627.5a33.97 33.97 0 0 1-17.3 4.7c-9.1 0-17.8-3.6-24.3-10l-4.2-4.3-18.3 3.9 5.2 25.1c11.6 9.9 26.2 15.4 41.6 15.4s30.2-5.7 41.4-15.2l-25.5-2.2 1.4-17.4h0zm-128.4-10.3l17.9 3.8-5.4 25.9c1.7-1.4 3.3-2.9 4.8-4.5l23.7-24-21-21.4-20 20.2zm72.7-72.7c-2.4 1.8-4.7 3.8-6.9 5.9l-24.9 25.2 21 21.4 24.8-25.1c.6-.6 1.2-1.1 1.8-1.6l5.5-19.6-21.3-6.2h0z"
        class="t AC" />
    <path
        d="M162.8 551.7c-2.5-2.6-5.1-4.9-7.9-7l-22.1 5.3 4.5 19c1.5 1.1 2.8 2.3 4.1 3.7l24 24.4 21 21.4 24.7 25.1.1.1c.8.8 1.6 1.5 2.4 2.2l-5.2-24.9 18.7-3.9-19.7-20-21-21.4-23.6-24h0z"
        class="u" />
    <g class="AA">
        <path
            d="M150.5 122.6v13.2h5c4.1 0 6.6-2 6.6-6.6 0-4.5-2.3-6.6-6.6-6.6h-5zm5 2.1c2.1 0 3.5 1.4 3.5 4.5s-1.3 4.5-3.5 4.5h-1.9v-8.9h1.9zm14.8 8.3c-.2.6-.8 1-1.7 1-1.2 0-2.1-.7-2.3-2.4h7c0-3.9-1.9-5.7-4.9-5.7s-4.9 1.8-4.9 5 2.1 5.1 5 5.1 4.3-1.3 4.7-3h-2.9zm-4-2.9c.2-1.6.9-2.3 2-2.3 1.2 0 2 .7 2 2.3h-4zm14.5-3.8l-2.1 7.4-2.1-7.4h-3.1l3.3 9.5h3.6l3.3-9.5h-2.9zM191 133c-.2.6-.8 1-1.7 1-1.2 0-2.1-.7-2.3-2.4h7c0-3.9-1.9-5.7-4.9-5.7s-4.9 1.8-4.9 5 2.1 5.1 5 5.1 4.3-1.3 4.7-3H191zm-3.9-2.9c.2-1.6.9-2.3 2-2.3 1.2 0 2 .7 2 2.3h-4zm11.4-7.5h-2.9v13.2h2.9v-13.2zm1.6 8.4c0 3.3 1.9 5.1 5.1 5.1s5.1-1.8 5.1-5.1-1.9-5-5.1-5-5.1 1.7-5.1 5zm3 0c0-2.3.7-3.1 2.1-3.1s2.1.8 2.1 3.1-.7 3.2-2.1 3.2c-1.3-.1-2.1-.9-2.1-3.2zm11-4.7h-2.2v12.9h2.9V135c.7.7 1.6 1.1 2.6 1.1 2.6 0 4.5-1.9 4.5-5.2 0-3.2-1.7-4.9-4.3-4.9-1.3 0-2.4.6-3 1.3l-.5-1zm4.9 4.7c0 2.1-.9 3-2.2 3-1.2 0-2.1-.8-2.1-3.1 0-1.9.9-2.8 2.2-2.8s2.1.8 2.1 2.9zm11 2c-.2.6-.8 1-1.7 1-1.2 0-2.1-.7-2.3-2.4h7c0-3.9-1.9-5.7-4.9-5.7s-4.9 1.8-4.9 5 2.1 5.1 5 5.1 4.3-1.3 4.7-3H230zm-3.9-2.9c.2-1.6.9-2.3 2-2.3 1.2 0 2 .7 2 2.3h-4zm11.4 5.7v-4c0-2.1 1-3.3 2.2-3.3a3.73 3.73 0 0 1 1.2.2V126c-.3-.1-.7-.1-1.1-.1-1.1 0-2 .6-2.5 1.7l-.3-1.4h-2.4v9.5h2.9z" />
        <use xlink:href="#O" />
    </g>
    <path d="M834.6 48c0 26.3-21.3 47.5-47.6 47.5S739.4 74.2 739.4 48C739.4 21.7 760.7.5 787 .5s47.6 21.2 47.6 47.5z"
        stroke="#303031" stroke-width=".865" class="AD" />
    <use xlink:href="#P" class="t" />
    <path
        d="M787.5 24.3s-12.3 0-10.1 11.2c1.8 9.2 10.1 7.2 10.1 7.2V24.3zm0 0s12.3 0 10.1 11.2c-1.8 9.2-10.1 7.2-10.1 7.2V24.3z"
        fill="#a96344" class="s" />
    <path
        d="M771 66.5c-1.8-2.2-2.4-7.9-2.2-10.7 4.8-4.2 7.9-5.4 13.9-6l-1 4.1 2.6 1.9-1.5 2.8.9 12.6c-4.4-.8-9.9-1.5-12.7-4.7zm32.5 0c1.8-2.2 2.4-7.9 2.2-10.7-4.8-4.2-7.9-5.4-13.9-6l1 4.1-2.6 1.9 1.5 2.8-.7 12.5c4.3-.7 9.8-1.4 12.5-4.6z"
        fill="#9ba1a6" />
    <path d="M785.5 51.2l1.9-1.7 1.5 1.7-1 2.2 2.2 17.9h-5.7l1.9-17.9-.8-2.2z" fill="#feffff" />
    <g fill="#fccbb3">
        <path
            d="M783.9 32.4c-1.2-.7-2.3-1.4-3-1.1-1.6.7-2.3 4.3-2.3 7.7s2.3 10.3 8.6 10.4h0 .1.1 0c6.3-.1 8.6-7 8.6-10.4s-.7-7-2.3-7.7c-.7-.3-1.8.4-3 1.1-1.1.7-2.4 1.4-3.4 1.4s-2.3-.8-3.4-1.4z"
            class="s" />
        <path
            d="M778.7 36h0a1.47 1.47 0 0 1 1.5 1.5v2.1a1.47 1.47 0 0 1-1.5 1.5h0a1.47 1.47 0 0 1-1.5-1.5v-2.1a1.54 1.54 0 0 1 1.5-1.5z" />
        <use xlink:href="#P" x="1.4" />
    </g>
    <path
        d="M762.8 35.5c-3.3-.9 5.3-15.9 15.8-10.3 0 0-4.8 5.3-4.6 8.4.2 4.3-4.5 15.2-4.5 15.2 0 .5-.3.5-1 .8s-7.1 1.6-7.1 1.6c0 .1-1.5-1.1-.2-2.5.6-.6 1.9-.8 2.7-1.9l-1-3.3c-1.1-2.1-1.1-5.6-.1-8z"
        class="AB" />
    <path
        d="M774 33.8c0 .3.1.7.1 1.1v1.5c-.3.4-.9 1.5-.5 2.8.4 1.2 1.3 1.9 1.7 2.1.3 1.2 1 3.6 1.9 4.5s1.5 1.4 1.9 1.7l.5.1c-1.3 1.2-3 1.9-5.2 1.9-5.5 0-8-4.8-8.7-8.4-.4-.1-.9-.5-1.1-1-.3-.9-.7-2.5-.2-3.3.2-.4.7-.4 1.2-.2.3-2.5 1-4.7 2.2-5.2.7-.3 1.8.4 3 1.1 1 .5 2.2 1.1 3.2 1.3z"
        fill="#fccab2" class="s" />
    <path
        d="M771 51.7l-1.4-2.2c-7.6.9-10.7 2.3-14.6 6.2 1.7 3.1 3.4 4.3 7.4 5.8 2.6 1.6 3.3 2.4 4.3 3.6-.7-3.7-1-5.7-1.5-9.5 1.9-1.8 3.1-2.7 5.8-3.9z"
        class="AE" />
    <path
        d="M812.7 35.7c3.3-.9-6.9-16-17.3-10.5 0 0 4.8 5.3 4.6 8.4-.2 4.3 3.8 15.2 3.8 15.2 0 1.1 1.2.8 2.1.8.8 0 6.8 1.6 6.8 1.6 0 .1.8-.7.8-1.6h0c0-1 0-1.5-.8-2.6l.8-3.3c1-2.2.2-5.6-.8-8z"
        fill="#fbab2c" fill-opacity=".4" />
    <path
        d="M800 33.8c0 .3-.1.7-.1 1v1.5c.3.4.9 1.5.5 2.8-.4 1.2-1.3 1.9-1.7 2.1-.3 1.2-1 3.6-1.9 4.5s-1.5 1.4-1.9 1.7l-.5.1c1.3 1.2 3 1.9 5.2 1.9 5.5 0 8-4.8 8.7-8.4.4-.1.9-.5 1.1-1 .3-.9.7-2.5.2-3.3-.2-.4-.7-.4-1.2-.2-.3-2.5-1-4.7-2.2-5.2-.7-.3-1.8.4-3 1.1-1 .6-2.2 1.2-3.2 1.4z"
        class="s AB" />
    <path
        d="M803 51.7l1.4-2.2c7.6.9 10.7 2.3 14.6 6.2-1.7 3.1-3.4 4.3-7.4 5.8-2.6 1.6-3.3 2.4-4.3 3.6.7-3.7 1-5.7 1.5-9.5-1.9-1.8-3.1-2.7-5.8-3.9z"
        class="AE" />
    <path d="M240.5 48c0 26.2-21.3 47.5-47.5 47.5S145.5 74.2 145.5 48 166.8.5 193 .5s47.5 21.3 47.5 47.5z"
        stroke="#303031" class="AD" />
    <g class="s">
        <path
            d="M192.6 26.1s12.3 0 10.1 11.2c-1.8 9.2-10.1 7.2-10.1 7.2V26.1zm0 0s-12.3 0-10.1 11.2c1.8 9.2 10.1 7.2 10.1 7.2V26.1z"
            fill="#51321c" />
        <path
            d="M188.9 34.1c-1.2-.7-2.3-1.4-3-1.1-1.6.7-2.3 4.3-2.3 7.8 0 3.4 2.3 10.3 8.7 10.5h0 .1.1 0c6.4-.1 8.7-7.1 8.7-10.5s-.7-7-2.3-7.8c-.7-.3-1.8.4-3 1.1-1.1.7-2.4 1.4-3.4 1.5-1.2-.1-2.4-.8-3.6-1.5z"
            fill="#d78d69" />
    </g>
    <path
        d="M183.8 37.8h0a1.58 1.58 0 0 1 1.6 1.6v2.1a1.58 1.58 0 0 1-1.6 1.6h0a1.58 1.58 0 0 1-1.6-1.6v-2.1c.1-.9.8-1.6 1.6-1.6zm17.3 0h0a1.58 1.58 0 0 1 1.6 1.6v2.1a1.58 1.58 0 0 1-1.6 1.6h0a1.58 1.58 0 0 1-1.6-1.6v-2.1a1.58 1.58 0 0 1 1.6-1.6z"
        fill="#d78d69" />
    <path
        d="M167.8 37.3c-3.3-.9 5.4-15.9 15.8-10.4 0 0-4.8 5.3-4.7 8.4.2 4.3-5.3 15.2-5.3 15.2-.2 1.1-.3.7-.9.8-.5.2-6.5 1.6-6.4 1.7 0 .1-1.5-1.1-.2-2.5.6-.6 1.9-.8 2.7-1.9l-1-3.4c-1-2.2-.9-5.5 0-7.9z"
        class="AB" />
    <path
        d="M179 35.6c0 .3.1.7.1 1.1v1.6c-.3.4-.9 1.5-.5 2.8s1.3 1.9 1.7 2.1c.3 1.2 1 3.6 1.9 4.5s1.6 1.4 1.9 1.7l.5.1c-1.3 1.2-3.1 1.9-5.3 1.9-5.5 0-8-4.8-8.8-8.4-.4-.1-.9-.5-1.1-1-.3-.9-.7-2.5-.2-3.3.2-.4.7-.4 1.2-.2.3-2.5 1-4.7 2.2-5.2.7-.3 1.8.4 3 1.1 1.3.3 2.4 1 3.4 1.2z"
        fill="#fccab2" class="s" />
    <path
        d="M176 53.5l-1.4-2.2c-7.6.9-10.7 2.3-14.7 6.2 1.7 3.1 3.4 4.3 7.4 5.9 2.6 1.6 3.3 2.4 4.3 3.6-.7-3.7-1-5.7-1.6-9.5 2.1-1.8 3.3-2.7 6-4z"
        class="AE" />
    <path
        d="M216.2 37.3c3.3-.9-5.3-15.9-15.8-10.4 0 0 4.8 5.3 4.7 8.4-.2 4.3 3.5 15.7 3.5 15.7 0 .5 1.7.2 2.6.3.9.2 6.6 1.6 6.6 1.7s1.5-1.1.2-2.5c-.6-.6-.9-.2-1.7-1.2l.8-3.4c.9-2.2.1-6.2-.9-8.6z"
        fill="#49384f" />
    <path
        d="M205 35.6c0 .3-.1.7-.1 1.1v1.6c.3.4.9 1.5.5 2.8-.4 1.2-1.3 1.9-1.7 2.1-.3 1.2-1 3.6-1.9 4.5s-1.6 1.4-1.9 1.7l-.5.1c1.3 1.2 3.1 1.9 5.3 1.9 5.5 0 8-4.8 8.8-8.4.4-.1.9-.5 1.1-1 .3-.9.7-2.5.2-3.3-.2-.4-.7-.4-1.2-.2-.3-2.5-1-4.7-2.2-5.2-.7-.3-1.8.4-3 1.1-1.3.4-2.4 1-3.4 1.2z"
        class="s AB" />
    <path
        d="M208 53.5l1.4-2.2c7.6.9 10.7 2.3 14.7 6.2-1.7 3.1-3.4 4.3-7.4 5.9-2.6 1.6-3.3 2.4-4.3 3.6.7-3.7 1-5.7 1.6-9.5-2.1-1.8-3.3-2.7-6-4z"
        fill="#e4eae8" />
    <path
        d="M199 51.9c-.3 3.3-3.1 6-6.5 6s-6.2-2.6-6.5-6c-4.8.7-7.8 2-12.1 5.8-.1 2.8.4 8.5 2.2 10.7 2.6 3.1 7.6 3.9 11.8 4.5h0c.3 0 .5.1.8.1 2.9.2 4.5.2 7.4 0 .2 0 .5-.1.7-.1h.1c4.2-.7 9.2-1.5 11.8-4.5 1.8-2.2 2.4-7.9 2.2-10.7-4.3-3.8-7.2-5.1-11.9-5.8z"
        fill="#e8e7e7" class="s" />
    <path
        d="M190.1 69.7l-.3.3-.1.1c-.1 0-.1 0-.1-.1l-2.6-3.2s-.1-.1-.1-.2 0-.1.1-.2l2.6-3.2.1-.1s.1 0 .1.1l.3.3s.1.1.1.2 0 .1-.1.2l-2.2 2.7 2.2 2.7s.1.1.1.2c-.1.1-.1.2-.1.2zm3.3-7.4l-2.1 8.9c0 .1 0 .1-.1.1h-.1l-.4-.1-.1-.1v-.2l2.1-8.9c0-.1 0-.1.1-.1h.1l.4.1.1.1c0 .1.1.2 0 .2zm3.8 4.5l-2.6 3.2-.1.1c-.1 0-.1 0-.1-.1l-.3-.3s-.1-.1-.1-.2 0-.1.1-.2l2.2-2.7-2.2-2.7s-.1-.1-.1-.2 0-.1.1-.2l.3-.3.1-.1s.1 0 .1.1l2.6 3.2s.1.1.1.2c-.1.1-.1.2-.1.2z"
        class="AD" />
    <ellipse cx="206.9" cy="25.7" rx="4.1" ry="2.8" fill="#49384f" />
    <g class="AA">
        <path d="M745.5 109.8h-10.9v2.3h3.9V123h3.1v-10.9h3.9v-2.3z" />
        <use xlink:href="#Q" />
        <use xlink:href="#R" />
        <path
            d="M767 123h2.9v-5.7c0-1.3.8-2.1 1.9-2.1.9 0 1.5.5 1.5 1.7v6.1h2.9v-6.2c0-2.3-1.3-3.7-3.5-3.7-1.2 0-2.1.5-2.7 1.1v-4.5h-3V123zm15.9-13.2V123h9.5v-2.3H786v-10.9h-3.1z" />
        <use xlink:href="#Q" x="48.5" />
        <path
            d="M807.5 116.3c.1-.7.7-1.2 1.6-1.2 1 0 1.5.5 1.5 1.4v.4l-2.4.4c-2.9.5-3.9 1.5-3.9 3 0 1.9 1.4 3 3.3 3 1.5 0 2.5-.6 3.2-1.3l.3 1h2.2v-6.3c0-2.2-1.7-3.5-4.3-3.5s-4.2 1.1-4.6 3h3.1zm3.1 2.2v1c0 1-.8 1.8-2.1 1.8-.8 0-1.3-.4-1.3-1.2 0-.7.4-1.1 1.7-1.4l1.7-.2zM825 123v-13.2h-2.9v4.6c-.6-.7-1.6-1.2-2.8-1.2-2.5 0-4.3 1.9-4.3 5.1 0 3.1 1.8 5 4.4 5 1.2 0 2.2-.5 2.9-1.3l.5 1h2.2zm-7.1-4.7c0-2 .9-3 2.2-3 1 0 2.2.6 2.2 3 0 2.1-.9 2.9-2.2 2.9s-2.2-.8-2.2-2.9zm-138.1 19.9c-.3-2.3-2.2-3.7-5.3-3.7-3.5 0-5.3 1.5-5.3 3.8 0 2.8 2.3 3.6 4.5 4.1 1.9.4 3.3.8 3.3 2.2 0 .9-.7 1.5-2.5 1.5-1.7 0-2.7-.9-2.9-2h-2.9c.4 2.5 2.4 4.2 5.8 4.2 3.9 0 5.6-1.9 5.6-4 0-2.9-2.6-3.9-5.1-4.5-1.8-.4-2.7-.7-2.7-1.8 0-.8.6-1.3 2.1-1.3 1.3 0 2.3.6 2.4 1.6h3z" />
        <use xlink:href="#S" />
        <use xlink:href="#R" x="-63.6" y="25" />
        <path
            d="M703.4 138.5v6.2c0 2.3 1.3 3.6 3.5 3.6 1.2 0 2.2-.5 2.9-1.3l.3 1h2.4v-9.5h-2.9v5.7c0 1.3-.8 2.1-1.8 2.1s-1.5-.5-1.5-1.5v-6.3h-2.9zm13.9 9.5v-4c0-2.1 1-3.3 2.2-3.3a3.73 3.73 0 0 1 1.2.2v-2.7c-.3-.1-.7-.1-1.1-.1-1.1 0-2 .6-2.5 1.7l-.3-1.5h-2.4v9.5h2.9zm7.4-10.7v-2.4h-3.1v2.4h3.1zm-.1 10.7v-9.5h-2.9v9.5h2.9zm7.5-1.9l-1 .2c-.6 0-.9-.3-.9-.8v-5h2v-2h-2v-2.3h-2.7l-.2 2.3h-1.5v2h1.5v4.9c0 1.9 1.2 2.9 3.1 2.9.6 0 1.2-.1 1.7-.3v-1.9zm7.8-7.6l-2.3 7.5-2.1-7.5h-3l3.4 9.5h.8c-.2 1.1-.6 1.5-1.3 1.5-.2 0-.6 0-1.2-.2v2c.5.1 1 .2 1.5.2 1.7 0 2.7-.9 3.6-3.4l3.4-9.8h-2.8zm9.3-4h-2.5l-3.7 15.2h2.5l3.7-15.2zm12.8 4.6c-.5-3-2.8-4.6-5.8-4.6-3.9 0-6.3 2.4-6.3 6.9 0 4.6 2.6 6.9 6.2 6.9s5.7-1.8 6.1-5.1H759c-.1 2.1-1.2 3-2.9 3-1.6 0-3-1.3-3-4.8 0-3.3 1.2-4.7 3.1-4.7 1.4 0 2.4.8 2.8 2.4h3zm1.4 4.1c0 3.3 1.9 5.1 5.1 5.1s5.1-1.8 5.1-5.1-1.9-5-5.1-5-5.1 1.7-5.1 5zm3 0c0-2.3.7-3.1 2.1-3.1s2.1.8 2.1 3.1-.7 3.2-2.1 3.2-2.1-.9-2.1-3.2zM778 148v-6c0-1 .6-1.8 1.7-1.8.9 0 1.5.5 1.5 1.5v6.3h2.9v-5.8c0-1.1.5-2 1.7-2 .9 0 1.5.5 1.5 1.5v6.3h2.9v-6.2c0-2.6-1.5-3.6-3.5-3.6-1.4 0-2.5.5-3.2 1.3-.6-.9-1.7-1.3-2.9-1.3-1.3 0-2.3.5-2.9 1.3l-.5-1h-2v9.5h2.8z" />
        <use xlink:href="#T" />
        <path
            d="M806.6 134.8h-2.9V148h2.9v-13.2zm5 2.5v-2.4h-3.1v2.4h3.1zm-.1 10.7v-9.5h-2.9v9.5h2.9zm4.8-6.8c.1-.7.7-1.2 1.6-1.2 1 0 1.5.5 1.5 1.4v.4l-2.4.4c-2.9.5-3.9 1.5-3.9 3 0 1.9 1.4 3 3.3 3 1.5 0 2.5-.6 3.2-1.3l.3 1h2.2v-6.3c0-2.2-1.7-3.5-4.3-3.5s-4.2 1.1-4.6 3h3.1zm3.1 2.3v1c0 1-.8 1.8-2.1 1.8-.8 0-1.3-.4-1.3-1.2 0-.7.4-1.1 1.7-1.4l1.7-.2zm7.6 4.5v-5.7c0-1.3.8-2.1 1.9-2.1.9 0 1.5.5 1.5 1.7v6.1h2.9v-6.2c0-2.3-1.3-3.7-3.5-3.7-1.4 0-2.3.6-2.9 1.3l-.3-1h-2.4v9.5h2.8z" />
        <use xlink:href="#R" x="79" y="25" />
        <use xlink:href="#S" x="164.4" />
        <path
            d="M868.1 148.3c3.2 0 6.5-1.9 6.5-6.9 0-5.1-3.2-6.9-6.5-6.9s-6.5 1.9-6.5 6.9c0 5.2 3.2 6.9 6.5 6.9zm0-2.2c-1.6 0-3.3-1.1-3.3-4.7s1.6-4.7 3.3-4.7 3.3 1.1 3.3 4.7-1.6 4.7-3.3 4.7z" />
        <use xlink:href="#T" x="84.2" />
        <use xlink:href="#O" x="646" y="12.2" />
    </g>
    <g class="r">
        <path
            d="M521.4 326.4v8.8h3.3c2.8 0 4.4-1.3 4.4-4.4 0-3-1.5-4.4-4.4-4.4h-3.3zm3.3 1.5c1.4 0 2.3.9 2.3 3s-.9 3-2.3 3h-1.3v-6h1.3z" />
        <use xlink:href="#U" />
        <path
            d="M537 333.5c.2 1.2 1.3 2 3.1 2 2 0 3-.9 3-2.2 0-1.4-1.4-1.7-2.5-2s-1.3-.4-1.3-.7.2-.5.9-.5c.6 0 1 .3 1.1.6h1.9c-.2-1.2-1.3-1.9-2.9-1.9-1.9 0-2.8.8-2.8 2 0 1.3 1.1 1.8 2.3 2.1s1.5.4 1.5.8-.3.6-1.1.6c-.6 0-1-.3-1.1-.7H537zm7.1 1.8h1.9v-3.8c0-.8.6-1.4 1.3-1.4.6 0 1 .3 1 1.2v4h1.9v-4.1c0-1.6-.9-2.4-2.4-2.4-.8 0-1.4.3-1.8.8v-3h-1.9v8.7zm8.8 0l.3-.7c.4.5 1.1.8 1.9.8 1.7 0 3-1.3 3-3.6 0-2.1-1.1-3.1-2.8-3.1-.8 0-1.5.3-1.9.8v-3h-1.9v8.8h1.4zm3.3-3.3c0 1.4-.6 2-1.5 2-.8 0-1.4-.5-1.4-2 0-1.3.6-1.9 1.5-1.9s1.4.6 1.4 1.9z" />
        <use xlink:href="#V" />
        <use xlink:href="#U" x="36.6" />
        <use xlink:href="#W" />
        <path
            d="M585.1 335.3v-8.8h-1.9v3c-.4-.5-1.1-.8-1.9-.8-1.7 0-2.9 1.3-2.9 3.4s1.2 3.3 2.9 3.3c.8 0 1.5-.4 1.9-.9l.3.7h1.6zm-4.7-3.2c0-1.3.6-2 1.5-2 .7 0 1.4.4 1.4 2 0 1.4-.6 2-1.4 2-.9 0-1.5-.6-1.5-2zm189.3 3.2l-2.3-3.6c1.2-.4 1.8-1.2 1.8-2.4 0-1.8-1.3-2.8-3.7-2.8h-3.2v8.8h2.1V332h1.1l1.9 3.2h2.3zm-4.3-7.4c1 0 1.6.4 1.6 1.4 0 .9-.6 1.4-1.5 1.4h-1.3v-2.8h1.2zm9.1 5.5c-.1.4-.5.7-1.1.7-.8 0-1.4-.5-1.5-1.6h4.6c0-2.6-1.2-3.8-3.3-3.8-2 0-3.3 1.2-3.3 3.4 0 2.1 1.4 3.4 3.4 3.4 1.9 0 2.9-.9 3.1-2h-1.9zm-2.6-2c.1-1.1.6-1.5 1.3-1.5.8 0 1.3.5 1.4 1.5h-2.7zm7.1-2.5h-1.4v8.6h1.9v-2.8c.4.5 1.1.7 1.8.7 1.7 0 3-1.3 3-3.5 0-2.1-1.1-3.3-2.8-3.3-.9 0-1.6.4-2 .9l-.5-.6zm3.3 3.1c0 1.4-.6 2-1.5 2-.8 0-1.4-.5-1.4-2 0-1.3.6-1.9 1.5-1.9s1.4.6 1.4 1.9z" />
        <use xlink:href="#X" />
        <path
            d="M794.9 335.3v-2.6c0-1.4.7-2.2 1.5-2.2.3 0 .6 0 .8.1v-1.8c-.2 0-.5-.1-.7-.1-.8 0-1.3.4-1.7 1.2l-.2-1H793v6.4h1.9zm6.6-1.3c-.3.1-.6.1-.7.1-.4 0-.6-.2-.6-.5v-3.3h1.3V329h-1.3v-1.5h-1.8l-.1 1.5h-1v1.3h1v3.3c0 1.3.8 2 2.1 2 .4 0 .8-.1 1.2-.2V334zm185.7-4.7c-.3-2-1.9-3.1-3.9-3.1-2.6 0-4.2 1.6-4.2 4.6 0 3.1 1.8 4.6 4.1 4.6 2.4 0 3.8-1.2 4.1-3.4h-2.1c-.1 1.4-.8 2-1.9 2s-2-.8-2-3.2c0-2.2.8-3.1 2.1-3.1.9 0 1.6.5 1.8 1.6h2z" />
        <use xlink:href="#V" x="429.1" />
        <path
            d="M997.9 335.3v-4c0-.6.4-1.2 1.1-1.2.6 0 1 .3 1 1v4.2h1.9v-3.9c0-.7.4-1.3 1.1-1.3.6 0 1 .3 1 1v4.2h1.9v-4.1c0-1.7-1-2.4-2.3-2.4-.9 0-1.6.4-2.1.9-.4-.6-1.1-.9-1.9-.9a2.32 2.32 0 0 0-1.9.9l-.3-.7h-1.3v6.4h1.8zm10.8-6.4h-1.4v8.6h1.9v-2.8c.5.5 1.1.7 1.8.7 1.7 0 3-1.3 3-3.5 0-2.1-1.1-3.3-2.8-3.3-.9 0-1.6.4-2 .9l-.5-.6zm3.3 3.1c0 1.4-.6 2-1.5 2-.8 0-1.4-.5-1.4-2 0-1.3.6-1.9 1.5-1.9.8 0 1.4.6 1.4 1.9zm4.8-1.3c.1-.5.4-.8 1-.8.7 0 1 .3 1 .9v.3l-1.6.3c-1.9.3-2.6 1-2.6 2 0 1.3.9 2 2.2 2 1 0 1.7-.4 2.1-.8l.2.7h1.5v-4.2c0-1.5-1.1-2.3-2.9-2.3-1.7 0-2.8.7-3.1 2h2.2zm2.1 1.5v.7c0 .7-.5 1.2-1.4 1.2-.6 0-.9-.3-.9-.8 0-.4.2-.7 1.2-.9l1.1-.2z" />
        <use xlink:href="#W" x="448.2" />
        <path
            d="M1028.9 328.1v-1.6h-2.1v1.6h2.1zm0 7.2v-6.4h-1.9v6.4h1.9zm.9-1.8c.2 1.2 1.3 2 3.1 2 2 0 3-.9 3-2.2 0-1.4-1.4-1.7-2.5-2s-1.3-.4-1.3-.7.2-.5.9-.5 1 .3 1.1.6h1.9c-.2-1.2-1.3-1.9-2.9-1.9-1.9 0-2.8.8-2.8 2 0 1.3 1.1 1.8 2.3 2.1s1.5.4 1.5.8-.3.6-1.1.6c-.6 0-1-.3-1.1-.7h-2.1zm7-1.4c0 2.2 1.3 3.4 3.4 3.4s3.4-1.2 3.4-3.4-1.2-3.3-3.4-3.3c-2.2-.1-3.4 1.1-3.4 3.3zm1.9 0c0-1.5.5-2.1 1.4-2.1s1.4.5 1.4 2.1-.5 2.1-1.4 2.1-1.4-.6-1.4-2.1zm7.8 3.2v-3.8c0-.9.5-1.4 1.3-1.4.6 0 1 .3 1 1.2v4h1.9v-4.1c0-1.5-.9-2.4-2.4-2.4-.9 0-1.5.4-2 .9l-.2-.7h-1.6v6.4h2z" />
    </g>
    <g class="t">
        <path d="M685.7,493.9c0-9.4,7.7-17.1,17.1-17.1h244.5v1.5H702.8c-8.6,0-15.6,7-15.6,15.6v29.8h-1.5V493.9z"
            class="s" />
        <ellipse cx="685.7" cy="606.4" rx="83" ry="82.9" />
    </g>
    <g class="u">
        <path
            d="M650.8 596.6c2.2 0 4.3-1.2 4.3-4.6s-2.1-4.6-4.3-4.6-4.3 1.2-4.3 4.6c0 3.5 2.2 4.6 4.3 4.6zm0-1.4c-1.1 0-2.2-.7-2.2-3.1s1.1-3.2 2.2-3.2 2.2.8 2.2 3.1c.1 2.4-1 3.2-2.2 3.2zm13.2 1.3l-3.2-8.8h-2.3l-3.1 8.8h2l.6-2h3.1l.6 2h2.3zm-4.4-7.2l1.2 3.8h-2.3l1.1-3.8zm12.1.6c-.2-1.5-1.4-2.4-3.5-2.4-2.3 0-3.5 1-3.5 2.5 0 1.9 1.5 2.4 3 2.7 1.3.3 2.2.5 2.2 1.4 0 .6-.5 1-1.6 1-1.2 0-1.8-.6-1.9-1.3h-1.9c.2 1.7 1.6 2.8 3.8 2.8 2.6 0 3.7-1.3 3.7-2.7 0-1.9-1.7-2.6-3.4-3-1.2-.3-1.8-.5-1.8-1.2 0-.5.4-.9 1.4-.9.9 0 1.5.4 1.6 1h1.9zm11.8 6.6l-2.3-3.6c1.2-.4 1.8-1.2 1.8-2.4 0-1.8-1.3-2.8-3.7-2.8h-3.2v8.8h2.1v-3.2h1.1l1.9 3.2h2.3zm-4.3-7.4c1 0 1.6.4 1.6 1.4 0 .9-.6 1.4-1.5 1.4H678v-2.8h1.2zm9.2 5.5c-.1.4-.5.7-1.1.7-.8 0-1.4-.5-1.5-1.6h4.6c0-2.6-1.2-3.8-3.3-3.8-2 0-3.3 1.2-3.3 3.4 0 2.1 1.4 3.4 3.4 3.4 1.9 0 2.9-.9 3.1-2h-1.9zm-2.7-2c.1-1.1.6-1.5 1.3-1.5.8 0 1.3.5 1.4 1.5h-2.7zm5.6 4.2c.2 1.2 1.2 2 3.2 2s3.2-1.1 3.2-2.7v-6h-1.4l-.3.6c-.5-.5-1.1-.8-1.8-.8-1.7 0-2.9 1.2-2.9 3.2s1.3 3.1 2.9 3.1c.7 0 1.3-.2 1.7-.6v.6c0 .9-.4 1.3-1.2 1.3-.7 0-1.1-.2-1.3-.7h-2.1zm1.8-3.7c0-1.2.6-1.8 1.5-1.8s1.4.6 1.4 1.8-.5 1.7-1.4 1.7c-.9.1-1.5-.5-1.5-1.7zm8-3.8v-1.6H699v1.6h2.1zm-.1 7.2v-6.4h-1.9v6.4h1.9z" />
        <use xlink:href="#Y" />
        <use xlink:href="#Z" />
        <path
            d="M715.5 596.5v-2.6c0-1.4.7-2.2 1.5-2.2.3 0 .6 0 .8.1V590c-.2 0-.5-.1-.7-.1-.8 0-1.3.4-1.7 1.2l-.2-1h-1.6v6.4h1.9zm7.3-6.4l-1.5 5-1.4-5h-2l2.3 6.4h.5c-.2.7-.4 1-.9 1-.2 0-.4 0-.8-.1v1.3c.3.1.7.1 1 .1 1.2 0 1.8-.6 2.4-2.3l2.3-6.5h-1.9zm-97.6 13.3c-.9 1.3-1.9 3.5-1.9 6s1.1 4.7 1.9 6h1.6c-1.2-2.2-1.8-4.1-1.8-6s.5-3.8 1.8-6h-1.6zm8 1.1l-2 7.2-2-7.2H627l2.8 8.8h2.5l2.8-8.8h-1.9zm6.4 6.9c-.1.4-.5.7-1.1.7-.8 0-1.4-.5-1.5-1.6h4.6c0-2.6-1.2-3.8-3.3-3.8-2 0-3.3 1.2-3.3 3.4 0 2.1 1.4 3.4 3.4 3.4 1.9 0 2.9-.9 3.1-2h-1.9zm-2.6-1.9c.1-1.1.6-1.5 1.3-1.5.8 0 1.3.5 1.4 1.5H637z" />
        <use xlink:href="#W" x="68.8" y="278" />
        <use xlink:href="#Y" x="-54.8" y="16.8" />
        <path d="M656.3 606.1v-1.6h-2.1v1.6h2.1zm-.1 7.2v-6.4h-1.9v6.4h1.9z" />
        <use xlink:href="#X" x="-127.8" y="278" />
        <path
            d="M667.1 613.3v-3.8c0-.9.5-1.4 1.3-1.4.6 0 1 .3 1 1.2v4h1.9v-4.1c0-1.5-.9-2.4-2.4-2.4a2.32 2.32 0 0 0-1.9.9l-.2-.7h-1.6v6.4h1.9zm16.5 0l-3.2-8.8h-2.3l-3.1 8.8h2l.6-2h3.1l.6 2h2.3zm-4.3-7.1l1.2 3.8h-2.3l1.1-3.8zm5.1-1.7v8.8h2.1v-3h1.2c2.5 0 3.7-.9 3.7-2.9s-1.1-2.9-3.8-2.9h-3.2zm3.2 1.4c1.1 0 1.7.4 1.7 1.5 0 1-.6 1.5-1.6 1.5h-1.2v-3h1.1zm4.9-1.4v8.8h2.1v-8.8h-2.1zm6.3 7c.2 1.2 1.3 2 3.1 2 2 0 3-.9 3-2.2 0-1.4-1.4-1.7-2.5-2s-1.3-.4-1.3-.7.2-.5.9-.5c.6 0 1 .3 1.1.6h1.9c-.2-1.2-1.3-1.9-2.9-1.9-1.9 0-2.8.8-2.8 2 0 1.3 1.1 1.8 2.3 2.1s1.5.4 1.5.8-.3.6-1.1.6c-.6 0-1-.3-1.1-.7h-2.1zm8.6-4.6H706v8.6h1.9v-2.8c.4.5 1.1.7 1.8.7 1.7 0 3-1.3 3-3.5 0-2.1-1.1-3.3-2.8-3.3-.9 0-1.6.4-2 .9l-.5-.6zm3.3 3.2c0 1.4-.6 2-1.5 2-.8 0-1.4-.5-1.4-2 0-1.3.6-1.9 1.5-1.9.8-.1 1.4.5 1.4 1.9zm7.3 1.3c-.1.4-.5.7-1.1.7-.8 0-1.4-.5-1.5-1.6h4.6c0-2.6-1.2-3.8-3.3-3.8-2 0-3.3 1.2-3.3 3.4 0 2.1 1.4 3.4 3.4 3.4 1.9 0 2.9-.9 3.1-2H718zm-2.6-1.9c.1-1.1.6-1.5 1.3-1.5.8 0 1.3.5 1.4 1.5h-2.7zm9.9 1.7c-.2.7-.6 1-1.2 1-.7 0-1.3-.6-1.3-2 0-1.6.5-2.2 1.3-2.2.5 0 .9.3 1.1.8h2c-.3-1.3-1.5-2.1-3.1-2.1-2 0-3.3 1.3-3.3 3.4s1.1 3.3 3.2 3.3c1.9 0 2.9-1 3.2-2.3h-1.9zm10.3-6.7c-.4-.1-.8-.2-1.5-.2-1.4 0-2.2.8-2.2 2.2v.5h-1v1.3h1v5h1.9v-5h1.4V607h-1.4v-.5c0-.5.2-.7.8-.7.2 0 .6.1 1 .2v-1.5z" />
        <use xlink:href="#V" x="176.9" y="278" />
        <use xlink:href="#W" x="169.9" y="278" />
        <path
            d="M650.2 630.3c2.2 0 4.3-1.2 4.3-4.6s-2.1-4.6-4.3-4.6-4.3 1.2-4.3 4.6 2.1 4.6 4.3 4.6zm0-1.5c-1.1 0-2.2-.7-2.2-3.1s1.1-3.2 2.2-3.2 2.2.8 2.2 3.1c0 2.5-1.1 3.2-2.2 3.2z" />
        <use xlink:href="#W" x="81.8" y="294.8" />
        <path
            d="M660.5 630.5c.2 1.2 1.2 2 3.2 2s3.2-1.1 3.2-2.7v-6h-1.4l-.3.6c-.5-.5-1.1-.8-1.9-.8-1.7 0-2.9 1.2-2.9 3.2s1.3 3.1 2.9 3.1c.7 0 1.3-.2 1.7-.6v.6c0 .9-.4 1.3-1.2 1.3-.7 0-1.1-.2-1.3-.7h-2zm1.7-3.7c0-1.2.6-1.8 1.5-1.8s1.4.6 1.4 1.8-.5 1.7-1.4 1.7-1.5-.5-1.5-1.7zm7.8-1.2c.1-.5.4-.8 1.1-.8.6 0 1 .3 1 .9v.3l-1.6.3c-1.9.3-2.6 1-2.6 2 0 1.3.9 2 2.2 2 1 0 1.7-.4 2.1-.8l.2.7h1.5V626c0-1.5-1.1-2.3-2.9-2.3-1.7 0-2.8.7-3.1 2h2.1zm2.1 1.5v.7c0 .7-.5 1.2-1.4 1.2-.6 0-.9-.3-.9-.8 0-.4.3-.7 1.2-.9l1.1-.2z" />
        <use xlink:href="#a" />
        <path
            d="M684.6 622.9v-1.6h-2.1v1.6h2.1zm0 7.2v-6.4h-1.9v6.4h1.9zm6.6-4.9v-1.5h-5.5v1.4h3.1l-3.3 3.5v1.5h5.6v-1.4h-3.2l3.3-3.5zm2.8.4c.1-.5.4-.8 1.1-.8.6 0 1 .3 1 .9v.3l-1.6.3c-1.9.3-2.6 1-2.6 2 0 1.3.9 2 2.2 2 1 0 1.7-.4 2.1-.8l.2.7h1.5V626c0-1.5-1.1-2.3-2.9-2.3-1.7 0-2.8.7-3.1 2h2.1zm2 1.5v.7c0 .7-.5 1.2-1.4 1.2-.6 0-.9-.3-.9-.8 0-.4.3-.7 1.2-.9l1.1-.2z" />
        <use xlink:href="#Z" x="-9.9" y="33.6" />
        <path
            d="M705.7 622.9v-1.6h-2.1v1.6h2.1zm0 7.2v-6.4h-1.9v6.4h1.9zm1.1-3.2c0 2.2 1.3 3.4 3.4 3.4s3.4-1.2 3.4-3.4-1.2-3.3-3.4-3.3-3.4 1.1-3.4 3.3zm1.9 0c0-1.5.5-2.1 1.4-2.1s1.4.5 1.4 2.1-.5 2.1-1.4 2.1-1.4-.6-1.4-2.1z" />
        <use xlink:href="#a" x="39.3" />
        <path d="M723.1 632.2c.9-1.3 1.9-3.5 1.9-6s-1.1-4.7-1.9-6h-1.6c1.2 2.2 1.8 4.1 1.8 6s-.5 3.8-1.8 6h1.6z" />
    </g>
    <g class="s">
        <path d="M685.7 717.4c0 9.4 7.7 17.1 17.1 17.1h50.5V733h-50.5c-8.6 0-15.6-7-15.6-15.6v-28.1h-1.5v28.1z"
            class="t" />
        <path
            d="M183.9 695.4V367.9h2.6v327.5c0 24.7 20 44.6 44.7 44.6h177.1v-6l12.8 7.4-12.8 7.4v-6.1H231.1c-26.1-.1-47.2-21.2-47.2-47.3zm12.2-262.7v-66.1h2.6v66.1c0 13.4 10.9 24.2 24.2 24.2h198.5a6.87 6.87 0 0 1 6.7-5.5 6.8 6.8 0 1 1 0 13.6 6.87 6.87 0 0 1-6.7-5.5H222.9c-14.8 0-26.8-12-26.8-26.8z"
            class="r" />
    </g>
    <path d="M197.4 161.8l-8.7 15H206l-8.6-15zm-1.5 13.5V324h3V175.3h-3z" class="r" />
    <circle cx="553.2" cy="278.6" r="38.3" class="u" />
    <defs>
        <filter id="A" filterUnits="userSpaceOnUse" x="525.7" y="259.8" width="55" height="37.6">
            <feColorMatrix values="1 0 0 0 0  0 1 0 0 0  0 0 1 0 0  0 0 0 1 0" />
        </filter>
        <path id="B"
            d="M111.1 592.1c-.2-3.2-3.2-6-7.5-6-4.9 0-8.3 3.2-8.3 9.2 0 5.9 3.2 9.2 8.1 9.2 4.5 0 7.5-3.2 7.7-6.6h-2.5c-.1 2.5-2.3 4.5-5.1 4.5-3.3 0-5.6-2.5-5.6-7.1 0-4.8 2.4-7.1 5.7-7.1 2.7 0 4.6 1.5 4.9 3.9h2.6z" />
        <path id="C"
            d="M362.9 728.1l-3.2-4.8c1.3-.5 2.4-1.5 2.4-3.2 0-2.4-1.7-3.7-4.7-3.7h-3.8v11.8h1.7v-4.5h2.8l2.8 4.5h2zm-5.4-10.4c2 0 2.9.8 2.9 2.3 0 1.4-1 2.2-2.8 2.2h-2.2v-4.6h2.1z" />
        <path id="D" d="M383.2 718.2v-1.8h-1.8v1.8h1.8zm-.1 9.9v-8.5h-1.6v8.5h1.6z" />
        <path id="E"
            d="M384.7 725.6c.1 1.6 1.5 2.7 3.7 2.7 2.3 0 3.5-1.1 3.5-2.7 0-1.7-1.3-2.3-3.3-2.7-1.6-.4-2-.7-2-1.3s.5-1 1.7-1c1.1 0 1.7.5 1.9 1.2h1.6c-.3-1.6-1.6-2.5-3.5-2.5-2.1 0-3.3 1-3.3 2.4 0 1.3.8 2 2.8 2.4 1.5.3 2.5.6 2.5 1.6 0 .7-.7 1.3-1.9 1.3s-1.9-.4-2.1-1.4h-1.6z" />
        <path id="F"
            d="M408.8 728.1v-5.2c0-1.3 1-2.2 2.1-2.2 1.2 0 1.8.6 1.8 1.9v5.5h1.6v-5.5c0-2.1-1.2-3.2-3-3.2a3.32 3.32 0 0 0-2.6 1.3l-.2-1.1h-1.3v8.5h1.6z" />
        <path id="G"
            d="M130.8 485c.3 2.2 2.2 3.5 4.8 3.5 2.9 0 4.6-1.7 4.6-3.5s-.9-2.8-4.2-3.7c-2.7-.8-3.1-1.2-3.1-2.1s.8-1.6 2.5-1.6c1.8 0 2.8.7 2.9 1.8h1.7c-.3-2-2.1-3.2-4.7-3.2-2.7 0-4.2 1.3-4.2 3 0 1.6.8 2.6 3.6 3.3 3.2.9 3.7 1.4 3.7 2.5s-1 2.1-3 2.1c-1.7 0-2.8-.8-3-2.2h-1.6z" />
        <path id="H"
            d="M36.2 459.6c-.2 1.1-.9 1.6-2 1.6-1.3 0-2.4-1-2.4-3.1 0-2.3 1-3.3 2.4-3.3 1 0 1.7.5 1.9 1.4h1.7c-.3-1.7-1.7-2.8-3.7-2.8-2.4 0-4 1.7-4 4.6s1.8 4.4 4 4.4c2.1 0 3.5-1.3 3.7-3h-1.6z" />
        <path id="I"
            d="M60.3 459.8c-.2.8-1 1.4-2.1 1.4-1.4 0-2.5-.9-2.6-2.8h6.5c0-3.4-1.6-4.8-4-4.8s-4.1 1.5-4.1 4.5 1.7 4.5 4.2 4.5c2 0 3.4-1.1 3.8-2.7h-1.7zm-4.6-2.7c.2-1.6 1.2-2.3 2.5-2.3s2.2.8 2.4 2.3h-4.9z" />
        <path id="J"
            d="M81.5 458c0 2.9 1.8 4.5 4.2 4.5s4.2-1.5 4.2-4.5c0-3.1-1.9-4.5-4.2-4.5-2.3.1-4.2 1.5-4.2 4.5zm1.7 0c0-2.1 1.1-3.2 2.6-3.2s2.5 1.1 2.5 3.2-1 3.2-2.5 3.2c-1.5.1-2.6-1.1-2.6-3.2z" />
        <path id="K"
            d="M93.3 462.3V457c0-1.3 1-2.2 2.1-2.2 1.2 0 1.8.6 1.8 1.9v5.5h1.6v-5.5c0-2.1-1.2-3.2-3-3.2a3.32 3.32 0 0 0-2.6 1.3l-.2-1.1h-1.3v8.5h1.6z" />
        <path id="L"
            d="M64.3 206.4v11.4h1.6v-4c.5.8 1.4 1.3 2.7 1.3 2.2 0 3.9-1.6 3.9-4.6 0-2.8-1.5-4.4-3.7-4.4-1.3 0-2.3.6-2.9 1.4l-.2-1.1h-1.4zm6.5 4.1c0 2.2-1 3.2-2.5 3.2s-2.6-1.2-2.6-3.2 1.2-3.1 2.6-3.1 2.5 1 2.5 3.1z" />
        <path id="M"
            d="M122.2 213.6c-.5.1-.7.1-1 .1-.6 0-.9-.3-.9-.9v-5.1h1.8v-1.3h-1.8v-2h-1.5l-.1 2h-1.3v1.3h1.3v5c0 1.4.8 2.4 2.3 2.4.4 0 .7 0 1.2-.2v-1.3z" />
        <path id="N"
            d="M413 438.1c-.2 1.1-.9 1.6-2 1.6-1.3 0-2.4-1-2.4-3.1 0-2.3 1-3.3 2.4-3.3 1 0 1.7.5 1.9 1.4h1.7c-.3-1.7-1.7-2.8-3.7-2.8-2.4 0-4 1.7-4 4.6s1.8 4.4 4 4.4c2.1 0 3.5-1.3 3.7-3H413z" />
        <path id="O"
            d="M241.4 133.1c.3 1.8 2 3 4.6 3 3.1 0 4.5-1.3 4.5-3.2 0-2.1-2.1-2.6-3.8-3-1.6-.4-2-.6-2-1.1s.4-.8 1.3-.8 1.5.4 1.6 1h2.9c-.3-1.8-1.9-2.9-4.4-2.9-2.8 0-4.2 1.2-4.2 3 0 2 1.6 2.6 3.5 3.1 1.7.4 2.3.5 2.3 1.2 0 .6-.5.9-1.6.9-.9 0-1.5-.4-1.7-1h-3z" />
        <path id="P"
            d="M794.6 36h0a1.47 1.47 0 0 1 1.5 1.5v2.1a1.47 1.47 0 0 1-1.5 1.5h0a1.47 1.47 0 0 1-1.5-1.5v-2.1c-.1-.8.6-1.5 1.5-1.5z" />
        <path id="Q"
            d="M751.6 120.3c-.2.6-.8 1-1.7 1-1.2 0-2.1-.7-2.3-2.4h7c0-3.9-1.9-5.7-4.9-5.7s-4.9 1.8-4.9 5.1c0 3.2 2.1 5 5 5s4.3-1.3 4.7-3h-2.9zm-3.9-3c.2-1.6.9-2.3 2-2.3 1.2 0 2 .7 2 2.3h-4z" />
        <path id="R"
            d="M762.5 119.9c-.3 1-.9 1.5-1.7 1.5-1 0-1.9-.9-1.9-3 0-2.4.8-3.3 2-3.3.7 0 1.4.5 1.6 1.3h3c-.4-1.9-2.2-3.2-4.7-3.2-3 0-4.9 1.9-4.9 5.1s1.7 5 4.9 5c2.8 0 4.3-1.5 4.8-3.5h-3.1z" />
        <path id="S"
            d="M688.1 145.3c-.2.6-.8 1-1.7 1-1.2 0-2.1-.7-2.3-2.4h7c0-3.9-1.9-5.7-4.9-5.7s-4.9 1.8-4.9 5.1c0 3.2 2.1 5.1 5 5.1s4.3-1.3 4.7-3h-2.9zm-3.9-3c.2-1.6.9-2.3 2-2.3 1.2 0 2 .7 2 2.3h-4z" />
        <path id="T"
            d="M794.3 138.5h-2.2v12.9h2.9v-4.1c.7.7 1.6 1.1 2.6 1.1 2.6 0 4.5-1.9 4.5-5.2 0-3.2-1.7-4.9-4.3-4.9-1.3 0-2.4.6-3 1.3l-.5-1.1zm4.9 4.7c0 2.1-.9 3-2.2 3-1.2 0-2.1-.8-2.1-3.1 0-1.9.9-2.8 2.2-2.8s2.1.9 2.1 2.9z" />
        <path id="U"
            d="M532.1 330.7c.1-.5.4-.8 1.1-.8.6 0 1 .3 1 .9v.3l-1.6.3c-1.9.3-2.6 1-2.6 2 0 1.3.9 2 2.2 2 1 0 1.7-.4 2.1-.8l.2.7h1.5v-4.2c0-1.5-1.1-2.3-2.9-2.3-1.7 0-2.8.7-3.1 2h2.1zm2 1.5v.7c0 .7-.5 1.2-1.4 1.2-.6 0-.9-.3-.9-.8 0-.4.3-.7 1.2-.9l1.1-.2z" />
        <path id="V"
            d="M559 332.1c0 2.2 1.3 3.4 3.4 3.4s3.4-1.2 3.4-3.4-1.2-3.3-3.4-3.3c-2.2-.1-3.4 1.1-3.4 3.3zm2 0c0-1.5.5-2.1 1.4-2.1s1.4.5 1.4 2.1-.5 2.1-1.4 2.1-1.4-.6-1.4-2.1z" />
        <path id="W"
            d="M575.8 335.3v-2.6c0-1.4.7-2.2 1.5-2.2.3 0 .6 0 .8.1v-1.8c-.2 0-.5-.1-.7-.1-.8 0-1.3.4-1.7 1.2l-.2-1h-1.6v6.4h1.9z" />
        <path id="X"
            d="M785.1 332.1c0 2.2 1.3 3.4 3.4 3.4s3.4-1.2 3.4-3.4-1.2-3.3-3.4-3.3c-2.1-.1-3.4 1.1-3.4 3.3zm2 0c0-1.5.5-2.1 1.4-2.1s1.4.5 1.4 2.1-.5 2.1-1.4 2.1-1.4-.6-1.4-2.1z" />
        <path id="Y"
            d="M702 594.7c.2 1.2 1.3 2 3 2 2 0 3-.9 3-2.2 0-1.4-1.4-1.7-2.5-2s-1.3-.4-1.3-.7.2-.5.9-.5c.6 0 1 .3 1.1.6h1.9c-.2-1.2-1.3-1.9-2.9-1.9-1.9 0-2.8.8-2.8 2 0 1.3 1.1 1.8 2.3 2.1s1.5.4 1.5.8-.3.6-1.1.6c-.6 0-1-.3-1.1-.7h-2z" />
        <path id="Z"
            d="M712.8 595.2c-.3.1-.6.1-.7.1-.4 0-.6-.2-.6-.5v-3.3h1.3v-1.3h-1.3v-1.5h-1.8l-.1 1.5h-1v1.3h1v3.3c0 1.3.8 2 2.1 2 .4 0 .8-.1 1.2-.2v-1.4z" />
        <path id="a"
            d="M677.2 630.1v-3.8c0-.9.5-1.4 1.3-1.4.6 0 1 .3 1 1.2v4h1.9V626c0-1.5-.9-2.4-2.4-2.4a2.32 2.32 0 0 0-1.9.9l-.2-.7h-1.6v6.4h1.9z" />
        <path id="b"
            d="M811.8 736.1c-.4.1-.5.1-.7.1-.4 0-.7-.2-.7-.7v-3.8h1.4v-1h-1.4v-1.5h-1.1l-.1 1.5h-.9v1h.9v3.8c0 1.1.6 1.8 1.7 1.8.3 0 .6 0 .9-.1v-1.1z" />
        <path id="c"
            d="M949.6 586h146c10.6 0 19.1 8.6 19.1 19.1h0c0 10.6-8.6 19.1-19.1 19.1h-146c-10.6 0-19.1-8.6-19.1-19.1h0c-.1-10.5 8.5-19.1 19.1-19.1z" />
        <path id="d"
            d="M986.6 607.2c-.1.8-.7 1.2-1.5 1.2-1 0-1.8-.7-1.8-2.3 0-1.7.7-2.5 1.8-2.5.7 0 1.3.4 1.4 1.1h1.3c-.2-1.3-1.3-2.1-2.8-2.1-1.8 0-3 1.3-3 3.4 0 2.2 1.3 3.3 3 3.3 1.6 0 2.6-1 2.8-2.2h-1.2z" />
        <path id="e"
            d="M985.7 666.6v4.2c0 1.6.9 2.4 2.2 2.4.8 0 1.5-.3 1.9-.9l.1.7h1v-6.4h-1.2v3.9c0 .9-.5 1.7-1.6 1.7-.8 0-1.3-.4-1.3-1.4v-4.2h-1.1z" />
        <path id="f"
            d="M1026.4 668.4c.1-.6.5-1 1.4-1s1.5.4 1.5 1.2v.3l-1.9.3c-1.7.3-2.4 1-2.4 2.1 0 1 .8 1.8 2.2 1.8a2.45 2.45 0 0 0 2.1-1.1l.2.9h1v-4.3c0-1.3-.9-2.2-2.6-2.2-1.6 0-2.6.8-2.7 2h1.2zm2.9 1.4v.8c0 .9-.9 1.5-1.8 1.5-.8 0-1.2-.3-1.2-1 0-.6.3-.9 1.4-1.1l1.6-.2z" />
        <path id="g"
            d="M1039 673.4c.2 1.2 1.2 2 2.9 2 1.9 0 2.9-1.1 2.9-2.5v-6.2h-1l-.2.8c-.4-.6-1.1-1-2.1-1-1.7 0-2.9 1.2-2.9 3.2s1.3 3.1 2.8 3.1c1 0 1.7-.3 2.1-.8v.8c0 1.1-.6 1.7-1.8 1.7-.9 0-1.5-.4-1.6-1h-1.1zm.9-3.7c0-1.5.8-2.2 1.8-2.2 1.1 0 1.9.8 1.9 2.3 0 1.3-.7 2.1-1.9 2.1-.9-.1-1.8-.9-1.8-2.2z" />
        <path id="h"
            d="M1031.4 730.4v4.1c0 1.6.9 2.4 2.2 2.4.8 0 1.5-.3 1.9-.9l.1.7h1v-6.4h-1.2v3.9c0 .9-.5 1.7-1.6 1.7-.8 0-1.3-.4-1.3-1.4v-4.2h-1.1z" />
        <path id="i"
            d="M1039.5 736.7v-3.2c0-1.6.7-2.2 1.5-2.2.3 0 .5 0 .8.1v-1.2c-.2 0-.4-.1-.7-.1-.7 0-1.3.4-1.6 1.1l-.2-.9h-1v6.4h1.2z" />
        <path id="j"
            d="M143.5 349.4v-3.6c0-.7.3-1.2.9-1.2.4 0 .7.2.7.8v4h2.3v-4c0-1.6-.8-2.4-2.2-2.4-.8 0-1.5.3-1.9.9l-.2-.7h-2v6.2h2.4z" />
        <path id="k"
            d="M148.2 347.5c.3 1.2 1.5 2.1 3.3 2.1 2.1 0 3.1-.9 3.1-2.2 0-1.2-1-1.6-2.7-2-.9-.2-1.1-.3-1.1-.6 0-.2.2-.4.6-.4.5 0 .8.2.9.5h2.3c-.2-1.2-1.4-2-3.1-2-2 0-3 .8-3 2s.8 1.7 2.7 2c.9.2 1.2.3 1.2.6s-.3.4-.8.4-.9-.2-1-.6h-2.4z" />
        <path id="l"
            d="M177.9 347.8c-.3.1-.6.1-.7.1-.3 0-.5-.1-.5-.5v-2.8h1.2V343h-1.2v-1.6h-2.2l-.1 1.6h-.9v1.6h.9v2.8c0 1.3.8 2 2.2 2 .4 0 .9-.1 1.3-.2v-1.4z" />
        <path id="m"
            d="M171.6 597.1c.3 1.2 1.5 2.1 3.3 2.1 2.1 0 3.2-.9 3.2-2.2 0-1.2-1-1.7-2.8-2-.9-.2-1.2-.3-1.2-.6 0-.2.2-.4.7-.4s.8.2.9.5h2.3c-.2-1.2-1.5-2.1-3.2-2.1-2 0-3.1.8-3.1 2.1 0 1.2.8 1.8 2.8 2.1.9.2 1.2.3 1.2.6s-.3.5-.8.5c-.6 0-.9-.2-1-.6h-2.3z" />
        <path id="n"
            d="M537.3 667.1c-.1-1.6-1.6-3-3.7-3-2.4 0-4.1 1.6-4.1 4.5s1.5 4.5 4 4.5c2.2 0 3.7-1.5 3.8-3.2h-1.2c-.1 1.2-1.1 2.2-2.5 2.2-1.6 0-2.7-1.2-2.7-3.5s1.2-3.5 2.8-3.5c1.3 0 2.3.8 2.4 1.9h1.2z" />
        <path id="o"
            d="M546.5 668.5c.1-.6.5-1 1.4-1s1.4.4 1.4 1.2v.3l-1.8.3c-1.7.3-2.4.9-2.4 2.1 0 1 .8 1.8 2.2 1.8a2.65 2.65 0 0 0 2.1-1l.1.9h.9v-4.3c0-1.3-.9-2.2-2.5-2.2s-2.6.8-2.7 1.9h1.3zm2.8 1.4v.8c0 .9-.9 1.5-1.8 1.5-.8 0-1.2-.3-1.2-.9s.3-.9 1.4-1.1l1.6-.3z" />
        <path id="p"
            d="M570.4 671.2c-.2.6-.8 1-1.5 1-1 0-1.8-.6-1.9-2.1h4.8c0-2.5-1.2-3.6-2.9-3.6s-3 1.1-3 3.3 1.3 3.3 3.1 3.3c1.5 0 2.5-.8 2.8-2h-1.4zm-3.3-2c.2-1.2.9-1.7 1.8-1.7 1 0 1.6.6 1.7 1.7h-3.5z" />
        <path id="q"
            d="M575.6 669.9c0 2.2 1.3 3.3 3.1 3.3s3.1-1.1 3.1-3.3-1.4-3.3-3.1-3.3-3.1 1-3.1 3.3zm1.2 0c0-1.6.8-2.4 1.9-2.4s1.9.8 1.9 2.4c0 1.5-.8 2.4-1.9 2.4-1.1-.1-1.9-.9-1.9-2.4z" />
        <path id="r"
            d="M518.7 737c-.1.8-.7 1.2-1.5 1.2-1 0-1.8-.7-1.8-2.2 0-1.7.7-2.4 1.7-2.4.7 0 1.2.4 1.4 1.1h1.3c-.2-1.3-1.3-2-2.7-2-1.8 0-2.9 1.3-2.9 3.3 0 2.1 1.3 3.3 3 3.3 1.5 0 2.6-1 2.7-2.2h-1.2z" />
        <path id="s"
            d="M601.8 738.1c-.3.1-.5.1-.7.1-.4 0-.7-.2-.7-.7v-3.7h1.3v-1h-1.3v-1.5h-1.1l-.1 1.5h-.9v1h.9v3.7c0 1 .6 1.7 1.7 1.7.3 0 .5 0 .9-.1v-1z" />
    </defs>
    <mask maskUnits="userSpaceOnUse" x="525.7" y="259.8" width="55" height="37.6" id="t">
        <path d="M530.7 262.8h45c1.1 0 2 .9 2 2v27.6c0 1.1-.9 2-2 2h-45c-1.1 0-2-.9-2-2v-27.6c0-1.1.9-2 2-2z"
            filter="url(#A)" class="y" />
    </mask>
    <path d="M530.7 262.8h45c1.1 0 2 .9 2 2v27.6c0 1.1-.9 2-2 2h-45c-1.1 0-2-.9-2-2v-27.6c0-1.1.9-2 2-2z" mask="url(#t)"
        class="v w z AF" />
    <g class="v w AG">
        <path d="M535.3 284.3v3.6m4.3-9.8v9.8m3.8-8v8m4.3-12.3v12.3m12.4-3.8h10.4m-10.4 4.4h10.4M552 269.4v18.5"
            class="AH" />
        <path d="M570.5 274c0 2.9-2.3 5.2-5.2 5.2s-5.2-2.3-5.2-5.2 2.3-5.2 5.2-5.2 5.2 2.3 5.2 5.2z" />
    </g>
    <circle cx="781.4" cy="278.6" r="38.3" class="u" />
    <path d="M763,274.4l12.4-6l11.4-10.7l12.4,5.3" stroke-width="3" class="v w AF AH" />
    <defs>
        <filter id="u" filterUnits="userSpaceOnUse" x="756.4" y="284.2" width="15.2" height="18.8">
            <feColorMatrix values="1 0 0 0 0  0 1 0 0 0  0 0 1 0 0  0 0 0 1 0" />
        </filter>
    </defs>
    <mask maskUnits="userSpaceOnUse" x="756.4" y="284.2" width="15.2" height="18.8" id="v">
        <path d="M761.4 287.2h5.2c1.1 0 2 .9 2 2v8.8c0 1.1-.9 2-2 2h-5.2c-1.1 0-2-.9-2-2v-8.8c0-1.1.9-2 2-2z"
            filter="url(#u)" class="y" />
    </mask>
    <path d="M761.4 287.2h5.2c1.1 0 2 .9 2 2v8.8c0 1.1-.9 2-2 2h-5.2c-1.1 0-2-.9-2-2v-8.8c0-1.1.9-2 2-2z" mask="url(#v)"
        class="v w z" />
    <defs>
        <filter id="w" filterUnits="userSpaceOnUse" x="767.8" y="279.2" width="15.2" height="23.8">
            <feColorMatrix values="1 0 0 0 0  0 1 0 0 0  0 0 1 0 0  0 0 0 1 0" />
        </filter>
    </defs>
    <mask maskUnits="userSpaceOnUse" x="767.8" y="279.2" width="15.2" height="23.8" id="x">
        <path d="M772.8 282.2h5.2c1.1 0 2 .9 2 2V298c0 1.1-.9 2-2 2h-5.2c-1.1 0-2-.9-2-2v-13.8c0-1.1.9-2 2-2z"
            filter="url(#w)" class="y" />
    </mask>
    <path d="M772.8 282.2h5.2c1.1 0 2 .9 2 2V298c0 1.1-.9 2-2 2h-5.2c-1.1 0-2-.9-2-2v-13.8c0-1.1.9-2 2-2z"
        mask="url(#x)" class="v w z" />
    <defs>
        <filter id="y" filterUnits="userSpaceOnUse" x="779.2" y="271.4" width="15.2" height="31.6">
            <feColorMatrix values="1 0 0 0 0  0 1 0 0 0  0 0 1 0 0  0 0 0 1 0" />
        </filter>
    </defs>
    <mask maskUnits="userSpaceOnUse" x="779.2" y="271.4" width="15.2" height="31.6" id="z">
        <path d="M784.2 274.4h5.2c1.1 0 2 .9 2 2V298c0 1.1-.9 2-2 2h-5.2c-1.1 0-2-.9-2-2v-21.6c0-1.1.9-2 2-2z"
            filter="url(#y)" class="y" />
    </mask>
    <path d="M784.2 274.4h5.2c1.1 0 2 .9 2 2V298c0 1.1-.9 2-2 2h-5.2c-1.1 0-2-.9-2-2v-21.6c0-1.1.9-2 2-2z"
        mask="url(#z)" class="v w z" />
    <defs>
        <filter id="AA" filterUnits="userSpaceOnUse" x="790.6" y="275" width="15.2" height="28">
            <feColorMatrix values="1 0 0 0 0  0 1 0 0 0  0 0 1 0 0  0 0 0 1 0" />
        </filter>
    </defs>
    <mask maskUnits="userSpaceOnUse" x="790.6" y="275" width="15.2" height="28" id="AB">
        <path d="M795.6 278h5.2c1.1 0 2 .9 2 2v18c0 1.1-.9 2-2 2h-5.2c-1.1 0-2-.9-2-2v-18c0-1.1.9-2 2-2z"
            filter="url(#AA)" class="y" />
    </mask>
    <path d="M795.6 278h5.2c1.1 0 2 .9 2 2v18c0 1.1-.9 2-2 2h-5.2c-1.1 0-2-.9-2-2v-18c0-1.1.9-2 2-2z" mask="url(#AB)"
        class="v w z" />
    <circle cx="1014.3" cy="279.1" r="38.3" class="u" />
    <path
        d="M1031.6 259.2c0-1.1-.9-2-2-2h-29.8c-1.1 0-2 .9-2 2V295c0 .5.2 1 .6 1.4l3.1 3.2c.4.4.9.6 1.4.6h26.7c1.1 0 2-.9 2-2v-39zm3 40.9v1c0 1.1-.9 2-2 2h-1-30c-.5 0-1-.2-1.4-.6l-4.8-4.9c-.4-.4-.6-.9-.6-1.4v-39-1c0-1.1.9-2 2-2h1 33.8 1c1.1 0 2 .9 2 2v1 42.9z"
        class="r s" />
    <g class="v w">
        <path d="M994.8,295.2h8v8" class="AF AG" />
        <path
            d="M1011.5 266.3a5 5 0 1 1-10 0 4.95 4.95 0 0 1 5-5c2.8 0 5 2.3 5 5zm16 0a5 5 0 1 1-10 0 4.95 4.95 0 0 1 5-5c2.8 0 5 2.3 5 5z"
            stroke-width="3" />
        <g class="AH">
            <path d="M1001.7 266.3h10" />
            <path
                d="M1004.1 279.5h8.4m-12.1 0h.5m18.6 0h8.4m-12.1 0h.5m-12.2 4.9h8.4m-12.1 0h.5m18.6 0h8.4m-12.1 0h.5m-12.2 4.9h8.4m-12.1 0h.5m18.6 0h8.4m-12.1 0h.5"
                class="AG" />
            <path d="M1018.5 266.3h8.2m-20.2-4v10" />
        </g>
    </g>
    <path
        d="M752 714h82.2c10.6 0 19.1 8.6 19.1 19.1h0c0 10.6-8.6 19.1-19.1 19.1H752c-10.6 0-19.1-8.6-19.1-19.1h0c0-10.5 8.6-19.1 19.1-19.1zM467.1 586h82.2c10.6 0 19.1 8.6 19.1 19.1h0c0 10.6-8.6 19.1-19.1 19.1h-82.2c-10.6 0-19.1-8.6-19.1-19.1h0c0-10.5 8.6-19.1 19.1-19.1z"
        class="t" />
    <g class="x">
        <path
            d="M766.7 737.2c2.4 0 4.2-1.7 4.2-4.6 0-3-1.8-4.6-4.2-4.6s-4.2 1.6-4.2 4.6 1.7 4.6 4.2 4.6zm0-1c-1.7 0-2.9-1.2-2.9-3.6s1.2-3.6 2.9-3.6 2.9 1.2 2.9 3.6-1.2 3.6-2.9 3.6zm13.1.9l-3.6-8.8h-1.4l-3.6 8.8h1.3l.9-2.2h4.2l.9 2.2h1.3zm-4.3-7.6l1.7 4.3h-3.4l1.7-4.3zm4.8 5.1c.2 1.6 1.7 2.7 3.6 2.7 2.2 0 3.4-1.2 3.4-2.6s-.7-2.1-3.1-2.8c-2-.6-2.3-.9-2.3-1.6s.6-1.2 1.9-1.2 2.1.5 2.2 1.4h1.3c-.2-1.5-1.6-2.4-3.5-2.4-2 0-3.2 1-3.2 2.3 0 1.2.6 1.9 2.7 2.5 2.4.6 2.8 1 2.8 1.8s-.7 1.5-2.2 1.5c-1.3 0-2.1-.6-2.3-1.6h-1.3zm12.1-6.4v8.8h5.4v-1h-4.2v-7.7h-1.2zm8 1.4v-1.4h-1.3v1.4h1.3zm-.1 7.5v-6.4h-1.2v6.4h1.2zm2.9 0v-3.9c0-1 .7-1.6 1.6-1.6s1.4.5 1.4 1.4v4.1h1.2v-4.2c0-1.6-.9-2.4-2.3-2.4-.8 0-1.5.3-1.9 1l-.1-.8h-1v6.4h1.1z" />
        <use xlink:href="#b" />
        <path
            d="M817.2 735.2c-.2.6-.8 1-1.5 1-1.1 0-1.9-.6-2-2.1h4.9c0-2.6-1.2-3.6-3-3.6s-3.1 1.1-3.1 3.4c0 2.2 1.3 3.4 3.1 3.4a2.98 2.98 0 0 0 2.9-2h-1.3zm-3.4-2c.2-1.2.9-1.8 1.8-1.8 1 0 1.7.6 1.8 1.8h-3.6zm7.3 3.9v-3.2c0-1.6.7-2.2 1.5-2.2.3 0 .5 0 .7.1v-1.2c-.1 0-.4-.1-.7-.1-.7 0-1.3.4-1.6 1.1l-.2-.9h-1v6.4h1.3z" />
    </g>
    <use xlink:href="#c" class="t" />
    <g class="x">
        <path
            d="M966.6 600.4v8.8h2.8c2.6 0 4.4-1.6 4.4-4.4 0-3-1.7-4.4-4.3-4.4h-2.9zm2.9 1c1.9 0 3.1 1.1 3.1 3.4 0 2.2-1.1 3.4-3 3.4h-1.7v-6.8h1.6zm5.3 4.6c0 2.2 1.4 3.4 3.1 3.4 1.8 0 3.1-1.1 3.1-3.4s-1.4-3.4-3.1-3.4c-1.6.1-3.1 1.1-3.1 3.4zm1.3 0c0-1.6.8-2.4 1.9-2.4s1.9.8 1.9 2.4-.8 2.4-1.9 2.4-1.9-.8-1.9-2.4z" />
        <use xlink:href="#d" />
        <path
            d="M1000.5 603.2c-.1-1.6-1.6-3-3.7-3-2.4 0-4.1 1.6-4.1 4.6 0 2.9 1.6 4.6 4 4.6 2.2 0 3.8-1.6 3.9-3.3h-1.3c-.1 1.3-1.1 2.2-2.6 2.2-1.7 0-2.8-1.3-2.8-3.5 0-2.4 1.2-3.5 2.9-3.5 1.4 0 2.3.8 2.5 2h1.2zm1 2.8c0 2.2 1.4 3.4 3.1 3.4 1.8 0 3.1-1.1 3.1-3.4s-1.4-3.4-3.1-3.4c-1.7.1-3.1 1.1-3.1 3.4zm1.2 0c0-1.6.8-2.4 1.9-2.4s1.9.8 1.9 2.4-.8 2.4-1.9 2.4-1.9-.8-1.9-2.4zm7.6 3.2v-3.9c0-.9.7-1.6 1.5-1.6s1.2.4 1.2 1.4v4.2h1.2v-3.9c0-.9.6-1.7 1.5-1.7.8 0 1.2.4 1.2 1.4v4.2h1.2V605c0-1.5-.9-2.3-2.2-2.3-.8 0-1.6.2-2.1 1-.4-.7-1-1-1.9-1-.7 0-1.4.3-1.9.9l-.1-.7h-1v6.4h1.4zm9.5-6.4v8.6h1.2v-3c.4.6 1.1 1 2 1 1.7 0 2.9-1.2 2.9-3.4 0-2.1-1.1-3.3-2.8-3.3-1 0-1.7.4-2.2 1l-.2-.8h-.9zm4.9 3.1c0 1.7-.8 2.4-1.8 2.4-1.2 0-1.9-.9-1.9-2.4s.9-2.3 1.9-2.3c1 .1 1.8.8 1.8 2.3zm3.8-5.5h-1.2v8.8h1.2v-8.8zm6 7c-.2.6-.8 1-1.6 1-1.1 0-1.9-.6-2-2.1h4.9c0-2.6-1.2-3.6-3-3.6s-3.1 1.2-3.1 3.4 1.3 3.4 3.1 3.4a2.98 2.98 0 0 0 2.9-2h-1.2zm-3.4-2.1c.2-1.2.9-1.8 1.8-1.8 1 0 1.7.6 1.8 1.8h-3.6zm9 3c-.4.1-.5.1-.7.1-.5 0-.7-.2-.7-.7v-3.8h1.4v-1h-1.4v-1.5h-1.1l-.1 1.5h-1v1h1v3.8c0 1.1.6 1.8 1.7 1.8.3 0 .6 0 .9-.1v-1.1zm5.4-.9c-.2.6-.8 1-1.5 1-1.1 0-1.9-.6-2-2.1h4.8c0-2.6-1.2-3.6-3-3.6s-3.1 1.2-3.1 3.4 1.3 3.4 3.1 3.4a2.98 2.98 0 0 0 2.9-2h-1.2zm-3.4-2.1c.2-1.2.9-1.8 1.8-1.8 1 0 1.7.6 1.8 1.8h-3.6zm7.3 3.9v-3.9c0-1 .7-1.6 1.6-1.6s1.4.5 1.4 1.4v4.1h1.2V605c0-1.6-.9-2.4-2.2-2.4-.8 0-1.5.3-1.9 1l-.1-.8h-1v6.4h1zm10.2-1.8c-.2.6-.8 1-1.6 1-1.1 0-1.9-.6-2-2.1h4.9c0-2.6-1.2-3.6-3-3.6s-3.1 1.2-3.1 3.4 1.3 3.4 3.1 3.4c1.5 0 2.5-.9 2.8-2h-1.1zm-3.5-2.1c.2-1.2.9-1.8 1.8-1.8 1 0 1.7.6 1.8 1.8h-3.6zm5.7 2.1c.1 1.2 1.2 2 2.7 2 1.7 0 2.7-.8 2.7-2 0-1.3-1-1.7-2.5-2.1-1.2-.3-1.5-.5-1.5-1 0-.4.4-.8 1.3-.8.8 0 1.3.3 1.4.9h1.2c-.2-1.2-1.2-1.9-2.6-1.9-1.6 0-2.5.7-2.5 1.8 0 .9.6 1.5 2.1 1.8 1.1.3 1.9.4 1.9 1.2 0 .5-.5 1-1.5 1-.9 0-1.4-.3-1.5-1.1h-1.2zm6.2 0c.1 1.2 1.2 2 2.7 2 1.7 0 2.7-.8 2.7-2 0-1.3-1-1.7-2.5-2.1-1.2-.3-1.5-.5-1.5-1 0-.4.4-.8 1.3-.8.8 0 1.3.3 1.4.9h1.2c-.2-1.2-1.2-1.9-2.6-1.9-1.6 0-2.5.7-2.5 1.8 0 .9.6 1.5 2.1 1.8 1.1.3 1.8.4 1.8 1.2 0 .5-.5 1-1.4 1s-1.4-.3-1.6-1.1h-1.1z" />
    </g>
    <path
        d="M949.1 522.5h146c10.6 0 19.1 8.6 19.1 19.1h0c0 10.6-8.6 19.1-19.1 19.1h-146c-10.6 0-19.1-8.6-19.1-19.1h0c0-10.6 8.6-19.1 19.1-19.1z"
        class="t" />
    <path
        d="M994.2 543.4c.2 1.6 1.6 2.6 3.5 2.6 2.1 0 3.4-1.2 3.4-2.6 0-1.3-.7-2-3.1-2.7-2-.6-2.3-.9-2.3-1.5s.6-1.2 1.9-1.2 2 .5 2.2 1.3h1.3c-.2-1.5-1.6-2.3-3.4-2.3-2 0-3.1 1-3.1 2.2s.6 1.9 2.6 2.4c2.3.6 2.7 1 2.7 1.8s-.7 1.5-2.2 1.5c-1.3 0-2.1-.6-2.2-1.6h-1.3zm-9.7-1.1l2.3 3.5h-1.4l-2.1-3.3h-2.1v3.3H980v-8.6h2.8c2.2 0 3.4 1 3.4 2.7 0 1.3-.8 2-1.7 2.4zm.4-2.4c0-1.1-.7-1.7-2.1-1.7h-1.6v3.4h1.6c1.4-.1 2.1-.7 2.1-1.7zm4.2 1h3.8v1h-3.8v2.9h4.2v1h-5.4v-8.6h5.4v1h-4.2v2.7zm12.6-3.7h7v1.1h-2.9v7.5h-1.2v-7.5h-2.9v-1.1zm19.3 4.1h-3.7v1h2.6v.7c0 1.3-1.2 2.2-2.5 2.2-1.4 0-2.8-1.2-2.8-3.6s1.2-3.5 2.8-3.5c1.3 0 2.2.6 2.4 1.7h1.2c-.2-1.6-1.6-2.8-3.7-2.8-2.2 0-4 1.6-4 4.6s1.7 4.6 3.9 4.6c1.2 0 2.2-.5 2.7-1.2l.2 1.1h.9v-4.8zm1.6-1.7v4.2c0 1.6.9 2.4 2.2 2.4.8 0 1.5-.3 1.9-.9l.1.7h1v-6.4h-1.2v3.9c0 .9-.5 1.7-1.6 1.7-.8 0-1.3-.4-1.3-1.4v-4.2h-1.1zm8.2-2.4v1.4h-1.3v-1.4h1.3zm-.1 2.4v6.4h-1.2v-6.4h1.2zm7.5 6.4v-8.8h-1.2v3.3c-.4-.6-1.1-1-2.1-1-1.7 0-2.9 1.1-2.9 3.4 0 2.2 1.2 3.3 2.8 3.3a2.45 2.45 0 0 0 2.1-1.1l.2.9h1.1zm-4.9-3.1c0-1.7.7-2.4 1.8-2.4 1.2 0 1.9.9 1.9 2.4 0 1.3-.7 2.3-1.9 2.3-1 0-1.8-.8-1.8-2.3zm9.4 2.3c.8 0 1.4-.4 1.5-1h1.3c-.3 1.2-1.3 2-2.8 2-1.8 0-3.1-1.1-3.1-3.4 0-2.2 1.3-3.4 3.1-3.4s3 1.1 3 3.6h-4.8c-.1 1.5.8 2.2 1.8 2.2zm-.1-4.8c-.9 0-1.7.6-1.8 1.8h3.6c-.1-1.2-.8-1.8-1.8-1.8zm5.6-3.2h-1.2v8.8h1.2v-8.8zm3 0v1.4h-1.3v-1.4h1.3zm-.1 2.4v6.4h-1.2v-6.4h1.2zm2.9 6.4v-3.9c0-1 .7-1.6 1.6-1.6s1.4.5 1.4 1.4v4.1h1.2v-4.2c0-1.6-.9-2.4-2.2-2.4-.8 0-1.5.3-1.9 1l-.1-.8h-1v6.4h1zm8.6-.8c.8 0 1.4-.4 1.5-1h1.3c-.3 1.2-1.3 2-2.8 2-1.8 0-3.1-1.1-3.1-3.4 0-2.2 1.3-3.4 3.1-3.4s3 1.1 3 3.6h-4.8c-.1 1.5.7 2.2 1.8 2.2zm-.1-4.8c-.9 0-1.7.6-1.8 1.8h3.6c-.1-1.2-.8-1.8-1.8-1.8z"
        class="s x" />
    <use xlink:href="#c" y="64" class="t" />
    <g class="x">
        <path
            d="M966.1 664.2v8.8h1.2v-8.8h-1.2zm4.2 8.8v-4c0-1 .7-1.6 1.6-1.6s1.4.5 1.4 1.4v4.1h1.2v-4.2c0-1.6-.9-2.4-2.3-2.4-.8 0-1.5.3-1.9 1l-.1-.8h-1v6.4h1.1z" />
        <use xlink:href="#d" x="-6.4" y="63.7" />
        <path d="M984 664.2h-1.2v8.8h1.2v-8.8z" />
        <use xlink:href="#e" />
        <path
            d="M992.1 671.1c.1 1.2 1.2 2 2.7 2 1.7 0 2.7-.8 2.7-2 0-1.3-1-1.7-2.5-2.1-1.2-.3-1.5-.5-1.5-1 0-.4.4-.8 1.3-.8.8 0 1.3.3 1.4.9h1.2c-.2-1.2-1.2-1.9-2.6-1.9-1.6 0-2.5.7-2.5 1.8 0 .9.6 1.5 2.1 1.8 1.1.3 1.8.4 1.8 1.2 0 .6-.5 1-1.5 1-.9 0-1.4-.3-1.6-1.1h-1zm8.1-5.6v-1.4h-1.3v1.4h1.3zm-.1 7.5v-6.4h-1.2v6.4h1.2zm5.8-6.4l-1.8 5.4-1.8-5.4h-1.3l2.2 6.4h1.6l2.2-6.4h-1.1zm6.3 4.5c-.2.6-.8 1-1.5 1-1.1 0-1.9-.6-2-2.1h4.9c0-2.6-1.2-3.6-3-3.6s-3.1 1.2-3.1 3.4 1.3 3.4 3.1 3.4a2.98 2.98 0 0 0 2.9-2h-1.3zm-3.5-2c.2-1.2.9-1.8 1.8-1.8 1 0 1.7.6 1.8 1.8h-3.6zm10-4.9v8.8h5.4v-1.1h-4.1v-7.7h-1.3z" />
        <use xlink:href="#f" />
        <path
            d="M1033.3 673v-4c0-1 .7-1.6 1.6-1.6s1.4.5 1.4 1.4v4.1h1.2v-4.2c0-1.6-.9-2.4-2.2-2.4-.8 0-1.5.3-1.9 1l-.1-.8h-1v6.4h1z" />
        <use xlink:href="#g" />
        <use xlink:href="#e" x="60.8" />
        <use xlink:href="#f" x="28" />
        <use xlink:href="#g" x="21.1" />
        <path
            d="M1072 671.1c-.2.6-.8 1-1.5 1-1.1 0-1.9-.6-2-2.1h4.9c0-2.6-1.2-3.6-3-3.6s-3.1 1.2-3.1 3.4 1.3 3.4 3.1 3.4c1.5 0 2.5-.9 2.8-2h-1.2zm-3.5-2c.2-1.2.9-1.8 1.8-1.8 1 0 1.7.6 1.8 1.8h-3.6z" />
    </g>
    <path
        d="M949.6 713.8h146c10.6 0 19.1 8.6 19.1 19.1h0c0 10.6-8.6 19.1-19.1 19.1h-146c-10.6 0-19.1-8.6-19.1-19.1h0c-.1-10.6 8.5-19.1 19.1-19.1z"
        class="t" />
    <g class="x">
        <path
            d="M994.2 736.7l-3.6-8.8h-1.4l-3.6 8.8h1.3l.9-2.2h4.2l.9 2.2h1.3zm-4.3-7.5l1.7 4.3h-3.4l1.7-4.3zm5.2-1.3v8.8h1.2v-3.1h1.6c2.3 0 3.5-1 3.5-2.8 0-1.9-1.2-2.9-3.5-2.9h-2.8zm2.9 1c1.4 0 2.1.7 2.1 1.8 0 1.2-.6 1.8-2.2 1.8h-1.6v-3.6h1.7zm4.9-1v8.8h1.2v-8.8h-1.2zm6.3 6.4c.2 1.6 1.7 2.7 3.6 2.7 2.2 0 3.5-1.2 3.5-2.6s-.7-2.1-3.1-2.8c-2-.6-2.3-.9-2.3-1.6s.6-1.2 1.9-1.2 2.1.5 2.2 1.4h1.3c-.2-1.5-1.6-2.4-3.5-2.4-2 0-3.2 1-3.2 2.3 0 1.2.6 1.9 2.7 2.5 2.4.6 2.8 1 2.8 1.8s-.8 1.5-2.2 1.5c-1.3 0-2.1-.6-2.3-1.6h-1.4zm12.7.6c-.2.6-.8 1-1.5 1-1.1 0-1.9-.6-2-2.1h4.9c0-2.6-1.2-3.6-3-3.6s-3.1 1.2-3.1 3.4 1.3 3.4 3.1 3.4c1.5 0 2.5-.9 2.8-2h-1.2zm-3.4-2c.2-1.2.9-1.8 1.8-1.8 1 0 1.7.6 1.8 1.8h-3.6zm10.3 1.8c-.1.8-.7 1.2-1.5 1.2-1 0-1.8-.7-1.8-2.3 0-1.7.7-2.5 1.8-2.5.8 0 1.3.4 1.4 1.1h1.3c-.2-1.3-1.3-2.1-2.8-2.1-1.8 0-3 1.3-3 3.4 0 2.2 1.3 3.3 3 3.3 1.6 0 2.6-1 2.8-2.2h-1.2z" />
        <use xlink:href="#h" />
        <use xlink:href="#i" />
        <path d="M1044 729.3v-1.4h-1.3v1.4h1.3zm-.1 7.4v-6.4h-1.2v6.4h1.2z" />
        <use xlink:href="#b" x="236.7" y="-0.3" />
        <path
            d="M1054.9 730.4h-1.2l-1.8 5.4-1.8-5.4h-1.3l2.3 6.4h.4c-.4 1-.6 1.4-1.1 1.4-.2 0-.4 0-.6-.1v1c.3.1.5.1.8.1 1.2 0 1.6-.9 2.1-2.3l2.2-6.5zm8 5.1h3.8v-.7h-2.8c.3-.4.7-.7 1-1l.8-.8c.4-.4.6-.7.8-1.1.2-.3.3-.7.3-1.1 0-.5-.2-.9-.5-1.2s-.8-.5-1.4-.5c-.4 0-.8.1-1 .2-.3.1-.5.3-.7.6s-.2.6-.2 1h1c0-.3.1-.6.2-.8.2-.2.4-.3.7-.3s.6.1.7.3c.2.2.3.4.3.7 0 .2-.1.4-.2.7s-.3.5-.5.7c-.2.3-.5.6-.9 1l-1.4 1.3v1zm1.9 1.9c-.7 0-1.4-.1-2-.4s-1.2-.6-1.6-1.1c-.5-.5-.8-1-1.1-1.6s-.4-1.3-.4-2 .1-1.3.4-1.9.6-1.2 1.1-1.6c.5-.5 1-.8 1.6-1.1s1.3-.4 2-.4 1.3.1 2 .4c.6.3 1.2.6 1.6 1.1.5.5.8 1 1.1 1.6s.4 1.3.4 1.9c0 .7-.1 1.3-.4 2-.3.6-.6 1.2-1.1 1.6-.4.5-1 .8-1.6 1.1s-1.3.4-2 .4z" />
    </g>
    <use xlink:href="#c" y="-127.3" class="t" />
    <g class="x">
        <path
            d="M990.9 481.7l-2.4-3.6c1-.4 1.8-1.1 1.8-2.4 0-1.8-1.2-2.8-3.5-2.8h-2.9v8.8h1.2v-3.4h2.1l2.1 3.4h1.6zm-4.1-7.8c1.5 0 2.2.6 2.2 1.8 0 1-.8 1.7-2.1 1.7h-1.7V474h1.6z" />
        <use xlink:href="#h" x="-39.6" y="-255.1" />
        <path
            d="M1000 481.7v-3.9c0-1 .7-1.6 1.6-1.6s1.4.5 1.4 1.4v4.1h1.2v-4.1c0-1.6-.9-2.4-2.2-2.4-.8 0-1.5.3-1.9 1l-.1-.8h-1v6.4h1z" />
        <use xlink:href="#b" x="196.8" y="-255.4" />
        <path
            d="M1010.9 474.2v-1.4h-1.3v1.4h1.3zm0 7.5v-6.4h-1.2v6.4h1.2zm2.9 0v-3.9c0-.9.7-1.6 1.5-1.6s1.2.4 1.2 1.4v4.2h1.2v-3.9c0-.9.6-1.7 1.5-1.7.8 0 1.2.4 1.2 1.4v4.2h1.2v-4.3c0-1.5-.9-2.3-2.2-2.3-.8 0-1.6.2-2.1 1-.3-.7-1-1-1.9-1-.7 0-1.4.3-1.9.9l-.1-.7h-1v6.4h1.4zm13.8-1.9c-.2.6-.8 1-1.5 1-1.1 0-1.9-.6-2-2.1h4.8c0-2.6-1.2-3.6-3-3.6s-3.1 1.2-3.1 3.4 1.3 3.4 3.1 3.4a2.98 2.98 0 0 0 2.9-2h-1.2zm-3.4-2c.2-1.2.9-1.8 1.8-1.8 1 0 1.7.6 1.8 1.8h-3.6zm9.9-4.9v8.8h2.8c2.6 0 4.4-1.6 4.4-4.4 0-3-1.7-4.4-4.3-4.4h-2.9zm2.9.9c1.9 0 3.1 1.1 3.1 3.4 0 2.2-1.1 3.4-3 3.4h-1.7v-6.8h1.6z" />
        <use xlink:href="#i" x="4.4" y="-255" />
        <path
            d="M1048.3 474.2v-1.4h-1.3v1.4h1.3zm0 7.5v-6.4h-1.2v6.4h1.2zm4.9-8.9c-.3-.1-.6-.1-1-.1-1.1 0-1.8.7-1.8 1.7v.9h-.9v1h.9v5.4h1.2v-5.4h1.4v-1h-1.4v-1c0-.4.2-.6.7-.6.3 0 .6 0 1 .1v-1zm3.6 7.9c-.4.1-.5.1-.7.1-.4 0-.7-.2-.7-.7v-3.8h1.4v-1h-1.4v-1.5h-1.1l-.1 1.5h-.9v1h.9v3.8c0 1.1.6 1.8 1.7 1.8.3 0 .5 0 .9-.1v-1.1zm9.9-.3h.9v-6.2h-.9c-.2.2-.4.4-.6.5s-.5.3-.8.4v.9c.2-.1.5-.2.7-.4a3.04 3.04 0 0 0 .7-.5v5.3zm.1 1.9c-.7 0-1.3-.1-2-.4-.6-.3-1.2-.6-1.6-1.1-.5-.5-.8-1-1.1-1.6s-.4-1.3-.4-2 .1-1.3.4-1.9.6-1.2 1.1-1.6c.5-.5 1-.8 1.6-1.1s1.3-.4 2-.4 1.3.1 2 .4c.6.3 1.1.6 1.6 1.1s.8 1 1.1 1.6.4 1.3.4 1.9c0 .7-.1 1.3-.4 2-.3.6-.6 1.2-1.1 1.6-.5.5-1 .8-1.6 1.1s-1.3.4-2 .4z" />
    </g>
    <g class="s">
        <path d="M604.8 606.1H568v-1.5h36.8v1.5z" class="t" />
        <path
            d="M788.4 187.3L784 195l-4.4-7.7h3.7v-21.5c-1.9-.4-3.3-2-3.3-4 0-2.3 1.8-4.1 4.1-4.1s4.1 1.8 4.1 4.1c0 2-1.4 3.7-3.3 4v21.5h3.5z"
            class="y" />
        <path
            d="M185 309.2l-4.4 7.7-4.4-7.7h3.7V171.4c-1.9-.4-3.3-2-3.3-4 0-2.3 1.8-4.1 4.1-4.1s4.1 1.8 4.1 4.1c0 2-1.4 3.7-3.3 4v137.8h3.5z"
            class="t" />
        <path d="M408.2 592.1l12.8 7.4-12.8 7.4v-6.1H324v-2.5h84.2v-6.2z" class="r" />
        <g class="t">
            <path
                d="M912 546.2c-8.6 0-15.6 7-15.6 15.6v155.1c0 9.4-7.7 17.1-17.1 17.1h-26.5v-1.5h26.5c8.6 0 15.6-7 15.6-15.6V561.8c0-9.4 7.7-17.1 17.1-17.1h25.1v1.5H912z" />
            <path
                d="M912 603.8c-8.6 0-15.6 7-15.6 15.6v97.4c0 9.4-7.7 17.1-17.1 17.1h-26.5v-1.5h26.5c8.6 0 15.6-7 15.6-15.6v-97.4c0-9.4 7.7-17.1 17.1-17.1h25.1v1.5H912z" />
            <path
                d="M912 667.1c-8.6 0-15.6 7-15.6 15.6v34.2c0 9.4-7.7 17.1-17.1 17.1h-26.5v-1.5h26.5c8.6 0 15.6-7 15.6-15.6v-34.2c0-9.4 7.7-17.1 17.1-17.1h25.1v1.5H912z" />
            <path d="M937.1 733.7h-85.8v-1.5h85.8v1.5z" />
        </g>
        <path
            d="M708.4 389.7l6.4 17.8h-4.4l-1.3-4.1h-6.3l-1.3 4.1h-4.1l6.3-17.8h4.7zm-.1 11l-2.3-7.6-2.4 7.6h4.7zm8-11v17.8h4.2v-6h2.4c5.1 0 7.6-1.8 7.6-5.9 0-4-2.3-6-7.7-6h-6.5zm6.4 2.8c2.2 0 3.4.9 3.4 3.1 0 2-1.1 3.1-3.2 3.1h-2.5v-6.2h2.3z"
            class="r" />
    </g>
    <path d="M732.8 407.5v-17.8h4.2v17.8h-4.2z" class="r" />
    <path
        d="M673.8 399.7c-.3 0-.5-.3-.5-.6s.2-.5.5-.6c2.6-.4 5.6-3.8 5.6-6.3l.7-7.3c0-7.7 7.5-8.7 14-8.7h0 49.2 0c6.5 0 14 1 14 8.7l.7 7.3c0 2.4 3 5.8 5.6 6.3.3 0 .5.3.5.6s-.2.5-.5.6c-2.6.4-5.6 3.8-5.6 6.3l-.7 7.3c0 7.3-6.6 8.6-12.8 8.7l3.3 3.3a4.45 4.45 0 0 1 2.1 1.2l14 14c1.8 1.9 1.8 4.9 0 6.7-1.9 1.9-4.9 1.9-6.7 0l-14-14c-.7-.7-1.1-1.6-1.3-2.5l-7.5-7.5c-.2-.2-.6-.5-.9-.7-.2-.2-.5-.3-.7-.5h-38.7-.1 0c-6.5 0-13.9-1-13.9-8.7l-.7-7.3c0-2.4-3-5.9-5.6-6.3zm71 20h0-52.1 0c-2.7 0-6.7-2.9-6.7-6.2l-.7-7.5c0-4.3-1.8-6-4.4-6.9 2.6-.9 4.4-2.6 4.4-6.9l.7-7.5c0-3.3 4-6.2 6.7-6.2h0 52.2 0c2.7.1 6.7 3 6.7 6.2l.7 7.5c0 4.3 1.8 6 4.4 6.9-2.6.9-4.4 2.6-4.4 6.9l-.7 7.5c-.1 3.3-4.1 6.1-6.8 6.2z"
        class="r s" />
    <path
        d="M776.6 385.5v26.2h2.8v-26.2h-2.8zm11.1 26.2V400c0-3.4 2.6-5.5 5.2-5.5 2.9 0 4.6 1.6 4.6 4.6v12.6h2.7v-12.6c0-4.3-2.6-6.9-6.6-6.9-2.4 0-4.7 1.2-6 3.4l-.3-2.8H785v19h2.7zm16.3-5.2c.4 3.5 3.3 5.8 7.9 5.8 4.8 0 7.7-2.6 7.7-5.8 0-3.6-2.6-5-7.2-5.9-3.8-.8-4.8-1.6-4.8-3.4 0-1.5 1.3-2.8 4.3-2.8 2.7 0 4.5 1.3 4.9 3.2h2.8c-.6-3.3-3.5-5.4-7.6-5.4-4.7 0-7.1 2.2-7.1 5.2 0 2.9 2.1 4.5 6.2 5.4 3.9.8 5.9 1.5 5.9 3.9 0 1.9-1.7 3.4-4.9 3.4-3 0-4.8-1.2-5.1-3.6h-3zm22.4 5.2v-19h-2.7v19h2.7zm.2-22.9v-3.4h-3.1v3.4h3.1zm4.9 24.4c.7 3.5 3.5 5.6 8.2 5.6 5.3 0 8.3-3.2 8.3-7.4v-18.7h-2.2l-.4 2.9c-1.2-2-3.4-3.5-6.4-3.5-4.8 0-8.3 3.5-8.3 9.6 0 6 3.9 9.3 8.2 9.3 3 0 5.2-1.2 6.5-3.1v3.3c0 3.3-2 5.3-5.7 5.3-2.9 0-4.8-1.2-5.2-3.4h-3zm1.9-11.4c0-5 2.6-7.3 5.9-7.3 3.5 0 6.1 2.4 6.1 7.3 0 4.7-2.6 7-6.1 7-3.2 0-5.9-2.5-5.9-7zm22.7 9.9v-11.6c0-3.5 2.5-5.6 5.2-5.6 2.9 0 4.6 1.6 4.6 4.6v12.6h2.7v-12.6c0-4.3-2.6-6.9-6.6-6.9-2.3 0-4.6 1.1-5.9 3.2v-10h-2.7v26.2h2.7zm25.4-16.6v-2.3h-4.3v-4.6h-2.5l-.2 4.6h-2.8v2.3h2.8v12.4c0 3 1.6 4.8 4.7 4.8.8 0 1.6-.1 2.5-.4v-2.3c-1 .3-1.6.3-2.2.3-1.4 0-2.3-.8-2.3-2.4v-12.4h4.3zm2.2 11.4c.4 3.5 3.3 5.8 7.9 5.8 4.8 0 7.7-2.6 7.7-5.8 0-3.6-2.6-5-7.2-5.9-3.8-.8-4.8-1.6-4.8-3.4 0-1.5 1.3-2.8 4.3-2.8 2.7 0 4.5 1.3 4.9 3.2h2.8c-.6-3.3-3.5-5.4-7.6-5.4-4.7 0-7.1 2.2-7.1 5.2 0 2.9 2.1 4.5 6.2 5.4 3.9.8 5.9 1.5 5.9 3.9 0 1.9-1.7 3.4-4.8 3.4-3 0-4.8-1.2-5.1-3.6h-3.1z"
        class="r" />
    <path
        d="M259.8 326.8H120c-10.5 0-19 8.5-19 18.9 0 10.5 8.5 18.9 19 18.9h139.9c10.5 0 19-8.5 19-18.9-.1-10.4-8.6-18.9-19.1-18.9zm-139.8-3c-12.1 0-22 9.8-22 21.9s9.8 21.9 22 21.9h139.9c12.1 0 22-9.8 22-21.9s-9.8-21.9-22-21.9H120z"
        class="r s" />
    <path
        d="M122 349.4l-3.2-8.6h-2.6l-3.2 8.6h2.5l.6-1.9h2.7l.6 1.9h2.6zm-4.6-6.5l.9 2.9h-1.7l.8-2.9zm5.2-2.1v8.6h2.5v-2.7h.9c2.7 0 3.9-1 3.9-2.9 0-2-1.2-2.9-3.9-2.9h-3.4zm3.4 1.7c.9 0 1.4.4 1.4 1.3 0 .8-.5 1.3-1.3 1.3h-.9v-2.5h.8zm4.9-1.7v8.6h2.5v-8.6h-2.5zm6.6 0v8.6h2.5v-8.6h-2.5z"
        class="r" />
    <use xlink:href="#j" class="r" />
    <use xlink:href="#k" class="r" />
    <path
        d="M157.9 342.5v-1.8h-2.5v1.8h2.5zm0 6.9v-6.2h-2.3v6.2h2.3zm1 .3c.2 1.4 1.3 2.1 3.3 2.1 2.1 0 3.3-1.1 3.3-2.8v-5.7h-1.8l-.3.6c-.4-.5-1-.8-1.8-.8-1.6 0-2.8 1.2-2.8 3.1 0 2 1.2 3 2.8 3 .7 0 1.2-.2 1.6-.6v.6c0 .7-.3 1-.9 1-.5 0-.8-.1-.9-.5h-2.5zm2.2-3.6c0-1 .5-1.5 1.1-1.5.7 0 1.1.4 1.1 1.5 0 .9-.4 1.4-1.1 1.4-.6 0-1.1-.5-1.1-1.4zm5.5 3.3h2.3v-3.7c0-.7.3-1.2.9-1.2.4 0 .7.2.7.8v4h2.3v-4c0-1.6-.8-2.4-2.2-2.4-.7 0-1.3.3-1.7.7v-2.9h-2.3v8.7z"
        class="r" />
    <use xlink:href="#l" class="r" />
    <use xlink:href="#k" x="30.2" class="r" />
    <path
        d="M188.5 340.8v8.6h2.5v-8.6h-2.5zm3.9 0v8.6h3.5c3 0 4.5-1.5 4.5-4.3 0-2.9-1.6-4.3-4.5-4.3h-3.5zm3.4 1.7c1.2 0 2 .8 2 2.6s-.8 2.6-2 2.6h-1v-5.2h1zm11.6 1.7H204v-1.7h3.8v-1.8h-6.3v8.6h6.3v-1.8H204v-1.8h3.4v-1.5zm10.5 0h-3.4v-1.7h3.8v-1.8H212v8.6h6.3v-1.8h-3.8v-1.8h3.4v-1.5zm7.7-1h-2.5l-.8 1.5-.9-1.5h-2.7l2.2 3-2.4 3.3h2.5l1-1.7 1 1.7h2.8l-2.4-3.3 2.2-3z"
        class="r" />
    <use xlink:href="#l" x="52.6" class="r" />
    <path
        d="M235.4 347.4c-.1.3-.4.6-.9.6-.6 0-1-.3-1.1-1.2h4.4c0-2.5-1.3-3.8-3.4-3.8s-3.4 1.2-3.4 3.3c0 2 1.3 3.3 3.4 3.3 1.9 0 3-.9 3.3-2.2h-2.3zm-2-1.8c.1-.8.5-1.1 1-1.1.6 0 .9.3 1 1.1h-2z"
        class="r" />
    <use xlink:href="#j" x="97.5" class="r" />
    <use xlink:href="#k" x="97.5" class="r" />
    <path
        d="M255.4 342.5v-1.8h-2.5v1.8h2.5zm-.1 6.9v-6.2H253v6.2h2.3zm.9-3.1c0 2.3 1.5 3.3 3.4 3.3 2 0 3.4-1.1 3.4-3.3s-1.4-3.3-3.4-3.3-3.4 1-3.4 3.3zm2.4 0c0-1.3.3-1.7 1.1-1.7.7 0 1.1.4 1.1 1.7s-.3 1.8-1.1 1.8c-.7-.1-1.1-.5-1.1-1.8z"
        class="r" />
    <use xlink:href="#j" x="122.8" class="r" />
    <path
        d="M122.9 595.2c0-8 6.5-14.5 14.5-14.5h93.4c8 0 14.5 6.5 14.5 14.5h0c0 8-6.5 14.5-14.5 14.5h-93.4c-8 0-14.5-6.5-14.5-14.5h0z"
        fill="#1e1e1e" />
    <g class="r">
        <path
            d="M230.8 583.6h-93.4c-6.4 0-11.5 5.2-11.5 11.5 0 6.4 5.2 11.5 11.5 11.5h93.4c6.4 0 11.5-5.2 11.5-11.5.1-6.3-5.1-11.5-11.5-11.5zm-93.4-3c-8 0-14.5 6.5-14.5 14.5s6.5 14.5 14.5 14.5h93.4c8 0 14.5-6.5 14.5-14.5s-6.5-14.5-14.5-14.5h-93.4z"
            class="s" />
        <path
            d="M144.7 599l-3.3-8.8h-2.6l-3.2 8.8h2.6l.6-1.9h2.7l.6 1.9h2.6zm-4.6-6.6l.9 3h-1.8l.9-3zm5.3-2.2v8.8h2.5v-2.8h.9c2.7 0 3.9-1 3.9-3s-1.2-3-4-3h-3.3zm3.4 1.7c.9 0 1.4.4 1.4 1.3 0 .8-.5 1.3-1.3 1.3h-.9v-2.6h.8zm5.1-1.7v8.8h2.6v-8.8h-2.6zm6.7 0v8.8h2.6v-8.8h-2.6zm6.2 8.8v-3.7c0-.7.3-1.2.9-1.2.4 0 .7.2.7.8v4.1h2.4v-4.1c0-1.6-.8-2.5-2.3-2.5-.9 0-1.5.3-1.9.9l-.2-.7h-2v6.4h2.4z" />
        <use xlink:href="#m" />
        <path
            d="M181.5 592v-1.8H179v1.8h2.5zm-.1 7v-6.4H179v6.4h2.4zm1.1.3c.2 1.4 1.3 2.1 3.3 2.1 2.2 0 3.3-1.2 3.3-2.9v-5.9h-1.8l-.3.6c-.4-.5-1-.8-1.8-.8-1.6 0-2.9 1.2-2.9 3.2s1.2 3.1 2.8 3.1a2.52 2.52 0 0 0 1.7-.6v.6c0 .7-.3 1.1-1 1.1-.6 0-.8-.1-1-.5h-2.3zm2.2-3.7c0-1 .5-1.5 1.1-1.5.7 0 1.1.5 1.1 1.5 0 .9-.4 1.4-1.1 1.4-.6 0-1.1-.4-1.1-1.4zm5.6 3.4h2.4v-3.7c0-.7.3-1.2.9-1.2.5 0 .7.2.7.8v4.1h2.4v-4.1c0-1.6-.8-2.5-2.3-2.5-.7 0-1.3.3-1.8.7v-3h-2.4v8.9zm11.6-1.6c-.3.1-.6.1-.7.1-.4 0-.5-.1-.5-.5v-2.8h1.3v-1.6h-1.3V591h-2.2l-.1 1.6h-.9v1.6h.9v2.9c0 1.3.9 2 2.3 2 .4 0 .9-.1 1.4-.2v-1.5z" />
        <use xlink:href="#m" x="30.7" />
        <path
            d="M220.9 593.2c-.3-2.1-1.9-3.2-4.1-3.2-2.7 0-4.4 1.6-4.4 4.6s1.8 4.6 4.3 4.6c2.4 0 3.9-1.2 4.3-3.6h-2.6c-.1 1.2-.7 1.8-1.6 1.8s-1.7-.8-1.7-2.9c0-2 .7-2.8 1.8-2.8.7 0 1.3.4 1.5 1.5h2.5zm1.1-3v8.8h6.8v-1.8h-4.2v-7H222zm7.7 0v8.8h2.6v-8.8h-2.6z" />
    </g>
    <g class="s">
        <g fill="#ccc">
            <path
                d="M666.4 802.1c-.3-.1-.6-.1-1-.1-1 0-1.7.7-1.7 1.7v.9h-.9v1h.9v5.3h1.2v-5.3h1.3v-1h-1.3v-.9c0-.4.2-.6.7-.6.3 0 .6 0 .9.1v-1.1zm-82.8 8.7l-3.5-8.6h-1.4l-3.6 8.6h1.3l.9-2.2h4.1l.9 2.2h1.3zm-4.3-7.4l1.6 4.2h-3.3l1.7-4.2zm5.2-1.2v8.6h1.2v-3.1h1.5c2.3 0 3.4-1 3.4-2.7 0-1.8-1.2-2.8-3.4-2.8h-2.7zm2.8 1c1.4 0 2.1.7 2.1 1.8s-.6 1.8-2.1 1.8h-1.6v-3.6h1.6zm4.7 7.6v-8.6h1.2v8.6H592zm13.5 0l-2.3-3.5c.9-.4 1.7-1.1 1.7-2.4 0-1.7-1.2-2.7-3.4-2.7h-2.8v8.6h1.2v-3.3h2.1l2.1 3.3h1.4zm-4-7.6c1.5 0 2.1.6 2.1 1.7 0 1-.7 1.6-2.1 1.6h-1.6v-3.4h1.6zm4.9 5.4v-4.1h1.2v4.1c0 .9.5 1.3 1.3 1.3 1 0 1.5-.8 1.5-1.6v-3.8h1.2v6.2h-.9l-.1-.7c-.4.6-1.1.9-1.9.9-1.4.1-2.3-.7-2.3-2.3zm7.9 2.2V807c0-1 .7-1.6 1.5-1.6.9 0 1.3.4 1.3 1.4v4.1h1.2v-4.1c0-1.5-.9-2.4-2.2-2.4-.7 0-1.4.3-1.9 1l-.1-.8h-.9v6.2h1.1zm7.8-.8c.2 0 .4 0 .7-.1v1c-.3.1-.6.1-.9.1-1.1 0-1.7-.7-1.7-1.7v-3.7h-.9v-1h.9l.1-1.5h1.1v1.5h1.3v1h-1.3v3.7c0 .5.2.7.7.7zm3-6.5v-1.4h-1.3v1.4h1.3zm-.1 7.3v-6.2h-1.2v6.2h1.2zm2.9-3.8v3.8h-1.2v-6.2h.9l.1.7c.5-.7 1.1-.9 1.8-.9.8 0 1.5.3 1.8 1 .5-.8 1.3-1 2-1 1.3 0 2.1.8 2.1 2.2v4.2h-1.2v-4.1c0-.9-.4-1.3-1.2-1.3-.9 0-1.5.8-1.5 1.6v3.8h-1.2v-4.1c0-1-.4-1.3-1.2-1.3-.6 0-1.2.7-1.2 1.6zm13.5 2c-.2.6-.8 1-1.5 1-1 0-1.8-.6-1.9-2.1h4.8c0-2.5-1.2-3.6-2.9-3.6s-3 1.1-3 3.3 1.3 3.3 3.1 3.3c1.5 0 2.5-.8 2.8-2h-1.4zm-3.3-2c.2-1.2.9-1.7 1.8-1.7 1 0 1.6.6 1.7 1.7h-3.5zm9.7 3.8v-8.6h2.8c2.5 0 4.2 1.4 4.2 4.3 0 2.8-1.8 4.3-4.3 4.3h-2.7zm5.8-4.3c0-2.3-1.2-3.3-3-3.3H649v6.7h1.6c1.9-.1 3-1.2 3-3.4zm3.8 4.3v-3.1c0-1.6.7-2.2 1.5-2.2.3 0 .5 0 .7.1v-1.2c-.1 0-.4-.1-.7-.1-.7 0-1.2.4-1.6 1.1l-.2-.9h-.9v6.2h1.2zm4.3-8.6v1.4h-1.3v-1.4h1.3zm-1.2 2.4h1.2v6.2h-1.2v-6.2zm8.8 5.4c.2 0 .4 0 .7-.1v1c-.3.1-.6.1-.9.1-1.1 0-1.7-.7-1.7-1.7v-3.7h-.9v-1h.9l.1-1.5h1.1v1.5h1.3v1h-1.3v3.7c0 .5.3.7.7.7zm6.5.8v-3.1c0-1.6.7-2.2 1.5-2.2.3 0 .5 0 .7.1v-1.2c-.1 0-.4-.1-.7-.1-.7 0-1.2.4-1.6 1.1l-.2-.9h-.9v6.2h1.2zm5.8-.8c.8 0 1.3-.4 1.5-1h1.2c-.3 1.1-1.3 2-2.8 2-1.8 0-3.1-1.1-3.1-3.3s1.3-3.3 3-3.3 2.9 1 2.9 3.6h-4.8c.3 1.4 1 2 2.1 2zm-.1-4.7c-.9 0-1.6.6-1.8 1.7h3.5c0-1.1-.7-1.7-1.7-1.7zm9-.7l-.2.8c-.4-.6-1.1-.9-2-.9-1.7 0-2.8 1.1-2.8 3.3 0 2.1 1.2 3.3 2.8 3.3 1 0 1.7-.4 2.1-1v3h1.2v-8.4h-1.1zm-3.9 3.2c0-1.6.7-2.4 1.8-2.4 1.2 0 1.9.9 1.9 2.4 0 1.3-.7 2.2-1.9 2.2-1 0-1.8-.7-1.8-2.2zm6.5.8v-4.1h1.2v4.1c0 .9.5 1.3 1.3 1.3 1 0 1.5-.8 1.5-1.6v-3.8h1.2v6.2h-.9l-.1-.7c-.4.6-1.1.9-1.9.9-1.4.1-2.3-.7-2.3-2.3zm8-5.1v-1.4h-1.3v1.4h1.3zm-.1 1.1h-1.2v6.2h1.2v-6.2zm2.9 3.1v3.1h-1.2v-6.2h.9l.2.9c.3-.7.9-1.1 1.6-1.1.3 0 .5 0 .7.1v1.2c-.2-.1-.5-.1-.7-.1-.8-.1-1.5.5-1.5 2.1zm7.2 1.3c-.2.6-.8 1-1.5 1-1 0-1.8-.6-1.9-2.1h4.8c0-2.5-1.2-3.6-2.9-3.6s-3 1.1-3 3.3 1.3 3.3 3.1 3.3c1.5 0 2.5-.8 2.8-2h-1.4zm-3.4-2c.2-1.2.9-1.7 1.8-1.7 1 0 1.6.6 1.7 1.7h-3.5zm8.3 4c-1.6 0-2.6-.8-2.7-2h1.2c.1.7.6 1.1 1.5 1.1s1.4-.4 1.4-1c0-.7-.7-.9-1.8-1.2-1.5-.3-2.1-.9-2.1-1.8 0-1.1.9-1.8 2.4-1.8 1.4 0 2.4.7 2.6 1.8h-1.2c-.1-.6-.6-.9-1.4-.9-.9 0-1.2.3-1.2.8s.3.7 1.5 1c1.5.3 2.4.7 2.4 2 0 1.2-.9 2-2.6 2zm11.6-8.8h-1.4l-3.6 8.6h1.3l.9-2.2h4.1l.9 2.2h1.4l-3.6-8.6zm-.7 1.2l1.6 4.2h-3.3l1.7-4.2zm6.4 7.4h-1.2v-8.6h2.8c2.2 0 3.4 1 3.4 2.8s-1.2 2.7-3.4 2.7h-1.5v3.1zm3.7-5.8c0-1.1-.7-1.8-2.1-1.8h-1.6v3.6h1.6c1.5-.1 2.1-.7 2.1-1.8zm2.6 5.8h1.2v-8.6h-1.2v8.6zM750 802c2.1 0 3.5 1.4 3.7 3h-1.2c-.2-1.2-1.1-1.9-2.4-1.9-1.7 0-2.8 1.1-2.8 3.5 0 2.2 1.1 3.5 2.7 3.5 1.4 0 2.4-.9 2.5-2.2h1.2c-.1 1.7-1.6 3.2-3.8 3.2-2.4 0-4-1.6-4-4.5 0-3 1.7-4.6 4.1-4.6zm6.1.2H755v8.6h1.2v-8.6zm4.1 3.1c-.9 0-1.3.4-1.4 1h-1.2c.1-1.2 1.1-1.9 2.7-1.9s2.5.9 2.5 2.2v4.3h-.9l-.1-.9c-.4.6-1.1 1-2.1 1-1.4 0-2.2-.8-2.2-1.8 0-1.1.7-1.8 2.4-2.1l1.8-.3v-.3c-.1-.8-.6-1.2-1.5-1.2zm1.4 3.2v-.8l-1.5.3c-1.1.2-1.4.5-1.4 1.1s.4.9 1.2.9 1.7-.6 1.7-1.5zm3.9 2.3v-3.1c0-1.6.7-2.2 1.5-2.2.3 0 .5 0 .7.1v-1.2c-.1 0-.4-.1-.7-.1-.7 0-1.2.4-1.6 1.1l-.2-.9h-.9v6.2h1.2zm4.4-8.6v1.4h-1.3v-1.4h1.3zm-1.2 2.4h1.2v6.2h-1.2v-6.2zm5.6 5.3c-.3.1-.5.1-.7.1-.4 0-.7-.2-.7-.7v-3.7h1.3v-1h-1.3v-1.5h-1.1l-.1 1.5h-.9v1h.9v3.7c0 1 .6 1.7 1.7 1.7.3 0 .5 0 .9-.1v-1zm5.1-5.3h1.2l-2.2 6.3c-.5 1.4-.9 2.3-2 2.3-.3 0-.4 0-.7-.1v-.9c.2.1.4.1.6.1.6 0 .7-.4 1.1-1.4h-.4l-2.3-6.2h1.2l1.8 5.3 1.7-5.4zm-210.7 6.1h-.9v-5.2c-.2.2-.4.3-.7.5-.2.1-.5.3-.7.4v-.9c.3-.1.5-.3.8-.4.2-.1.4-.3.6-.5h.9v6.1zm-2.6 1.5c.6.3 1.3.4 2 .4s1.4-.1 2-.4 1.1-.6 1.6-1.1.8-1 1.1-1.6.4-1.3.4-2-.1-1.3-.4-1.9-.6-1.2-1.1-1.6c-.5-.5-1-.8-1.6-1.1s-1.3-.4-2-.4-1.3.1-2 .4c-.6.3-1.2.6-1.6 1.1-.5.5-.8 1-1.1 1.6s-.4 1.3-.4 1.9c0 .7.1 1.3.4 2 .3.6.6 1.2 1.1 1.6.4.5 1 .9 1.6 1.1z" />
            <path
                d="M836.7 811c-1.9 0-3.3-1-3.5-2.6h1.3c.1 1 .9 1.6 2.2 1.6 1.4 0 2.2-.7 2.2-1.5s-.4-1.2-2.7-1.8c-2-.6-2.6-1.3-2.6-2.4 0-1.3 1.1-2.2 3.1-2.2 1.8 0 3.2.9 3.4 2.3h-1.3c-.1-.8-.9-1.3-2.2-1.3s-1.9.5-1.9 1.2.3 1 2.3 1.5c2.4.7 3.1 1.4 3.1 2.7s-1.3 2.5-3.4 2.5zm-21.7-8.8l3.5 8.6h-1.4l-.9-2.2h-4.1l-.9 2.2h-1.3l3.6-8.6h1.5zm1 5.4l-1.6-4.2-1.7 4.2h3.3zm3.5 3.2v-8.6h2.8c2.2 0 3.4 1 3.4 2.8s-1.2 2.7-3.4 2.7h-1.5v3.1h-1.3zm4.9-5.8c0-1.1-.7-1.8-2.1-1.8h-1.6v3.6h1.6c1.5-.1 2.1-.7 2.1-1.8zm2.6-2.8v8.6h1.2v-8.6H827zm18.7 6.8c-.2.6-.8 1-1.5 1-1 0-1.8-.6-1.9-2.1h4.8c0-2.5-1.2-3.6-2.9-3.6s-3 1.1-3 3.3 1.3 3.3 3.1 3.3c1.5 0 2.5-.8 2.8-2h-1.4zm-3.4-2c.2-1.2.9-1.7 1.8-1.7 1 0 1.6.6 1.7 1.7h-3.5zm8.7 3c.8 0 1.3-.4 1.5-1.2h1.3c-.2 1.2-1.2 2.2-2.7 2.2-1.7 0-3-1.1-3-3.3 0-2.1 1.2-3.3 2.9-3.3 1.4 0 2.5.8 2.7 2h-1.3c-.2-.7-.7-1.1-1.4-1.1-1 0-1.7.8-1.7 2.4s.7 2.3 1.7 2.3zm4-5.4v4.1c0 1.6.9 2.4 2.2 2.4a2.32 2.32 0 0 0 1.9-.9l.1.7h.9v-6.2H859v3.8c0 .9-.5 1.6-1.5 1.6-.8 0-1.3-.4-1.3-1.3v-4.1H855zm7.9 3.1v3.1h-1.2v-6.2h.9l.2.9c.3-.7.9-1.1 1.6-1.1.3 0 .5 0 .7.1v1.2c-.2-.1-.5-.1-.7-.1-.8-.1-1.5.5-1.5 2.1zm4.4-4.2v-1.4H866v1.4h1.3zm-.1 1.1H866v6.2h1.2v-6.2zm3.8 5.4c.2 0 .4 0 .7-.1v1c-.3.1-.6.1-.9.1-1.1 0-1.7-.7-1.7-1.7v-3.7h-.9v-1h.9l.1-1.5h1.1v1.5h1.3v1h-1.3v3.7c0 .5.3.7.7.7zm7-5.4h-1.2l-1.8 5.3-1.8-5.3H872l2.3 6.2h.4c-.4 1-.5 1.4-1.1 1.4-.2 0-.4 0-.6-.1v.9c.3.1.5.1.7.1 1.2 0 1.6-.9 2-2.3l2.3-6.2zm9.1 1.8v1h-4.3v-1h4.3zM900 805c-.1-1.6-1.6-3-3.7-3-2.4 0-4.1 1.6-4.1 4.5s1.5 4.5 4 4.5c2.2 0 3.7-1.5 3.8-3.2h-1.2c-.1 1.2-1.1 2.2-2.5 2.2-1.6 0-2.7-1.2-2.7-3.5s1.2-3.5 2.8-3.5c1.3 0 2.3.8 2.4 1.9h1.2zm4.1 6c-1.7 0-3.1-1.1-3.1-3.3s1.4-3.3 3.1-3.3 3.1 1.1 3.1 3.3-1.4 3.3-3.1 3.3zm0-5.7c-1.1 0-1.9.8-1.9 2.4 0 1.5.8 2.4 1.9 2.4s1.9-.8 1.9-2.4-.9-2.4-1.9-2.4zm5.5 5.5V807c0-.9.7-1.6 1.5-1.6s1.2.4 1.2 1.3v4.1h1.2V807c0-.9.6-1.6 1.5-1.6.8 0 1.2.4 1.2 1.3v4.1h1.2v-4.2c0-1.5-.8-2.2-2.1-2.2-.8 0-1.5.2-2 1-.3-.6-1-1-1.8-1-.7 0-1.4.3-1.8.9l-.1-.7h-.9v6.2h.9zm10.6-8.6v1.4h-1.3v-1.4h1.3zm-1.2 2.4h1.2v6.2H919v-6.2zm4 6.2V807c0-1 .7-1.6 1.5-1.6.9 0 1.3.4 1.3 1.4v4.1h1.2v-4.1c0-1.5-.9-2.4-2.2-2.4-.7 0-1.4.3-1.9 1l-.1-.8h-.9v6.2h1.1zm8.4 2.4c-1.7 0-2.6-.8-2.8-1.9h1.2c.1.6.6 1 1.5 1 1.2 0 1.8-.6 1.8-1.6v-.8c-.4.5-1.1.8-2.1.8-1.5 0-2.8-1.1-2.8-3.1s1.1-3.2 2.8-3.2c1 0 1.6.4 2 1l.2-.8h.9v6.1c.1 1.4-.9 2.5-2.7 2.5zm-.1-7.8c-1.1 0-1.8.7-1.8 2.2 0 1.3.8 2.1 1.8 2.1 1.2 0 1.9-.8 1.9-2 0-1.5-.8-2.3-1.9-2.3zm7.7 3.6c.1 1.2 1.1 2 2.7 2 1.7 0 2.6-.8 2.6-2 0-1.3-1-1.7-2.4-2-1.2-.3-1.5-.5-1.5-1 0-.4.4-.8 1.2-.8s1.3.3 1.4.9h1.2c-.2-1.1-1.2-1.8-2.6-1.8-1.6 0-2.4.7-2.4 1.8 0 .9.6 1.5 2.1 1.8 1.1.3 1.8.4 1.8 1.2 0 .5-.5 1-1.4 1s-1.4-.3-1.5-1.1H939zm9.4 2c-1.7 0-3.1-1.1-3.1-3.3s1.4-3.3 3.1-3.3 3.1 1.1 3.1 3.3-1.4 3.3-3.1 3.3zm0-5.7c-1.1 0-1.9.8-1.9 2.4 0 1.5.8 2.4 1.9 2.4s1.9-.8 1.9-2.4c-.1-1.6-.9-2.4-1.9-2.4zm4 2.4c0 2.2 1.3 3.3 3.1 3.3s3.1-1.1 3.1-3.3-1.4-3.3-3.1-3.3-3.1 1.1-3.1 3.3zm1.2 0c0-1.6.8-2.4 1.9-2.4s1.9.8 1.9 2.4c0 1.5-.8 2.4-1.9 2.4s-1.9-.9-1.9-2.4zm7.4-.7v3.9h-1.2v-6.2h.9l.1.8c.5-.6 1.2-1 1.9-1 1.4 0 2.2.8 2.2 2.4v4.1h-1.2v-4.1c0-.9-.5-1.4-1.3-1.4-.6-.1-1.4.5-1.4 1.5zm16.8-2.4l-1.3 5-1.5-5h-1.4l-1.5 5-1.3-5h-1.2l1.8 6.2h1.4l1.5-4.9 1.5 4.9h1.3l1.8-6.2h-1.1zm3.4-2.4v1.4h-1.3v-1.4h1.3zm-1.2 2.4h1.2v6.2H980v-6.2zm5.6 5.3c-.3.1-.5.1-.7.1-.4 0-.7-.2-.7-.7v-3.7h1.3v-1h-1.3v-1.5h-1.1l-.1 1.5h-.9v1h.9v3.7c0 1 .6 1.7 1.7 1.7.3 0 .5 0 .9-.1v-1zm2.3-2.9v3.8h-1.2v-8.6h1.2v3.1c.5-.6 1.1-.9 1.8-.9 1.4 0 2.2.8 2.2 2.4v4.1h-1.2v-4.1c0-.9-.5-1.4-1.3-1.4s-1.5.6-1.5 1.6zm9.3 3.8h1.2v-3.1h1.5c2.3 0 3.4-1 3.4-2.7 0-1.8-1.2-2.8-3.4-2.8h-2.8v8.6zm2.8-7.6c1.4 0 2.1.7 2.1 1.8s-.6 1.8-2.1 1.8h-1.6v-3.6h1.6zm7 2.1c-.9 0-1.3.4-1.4 1h-1.2c.1-1.2 1.1-1.9 2.7-1.9s2.5.9 2.5 2.2v4.3h-.9l-.1-.9c-.4.6-1.1 1-2.1 1-1.4 0-2.2-.8-2.2-1.8 0-1.1.7-1.8 2.4-2.1l1.8-.3v-.3c-.1-.8-.6-1.2-1.5-1.2zm1.4 3.2v-.8l-1.5.3c-1.1.2-1.4.5-1.4 1.1s.4.9 1.2.9 1.7-.6 1.7-1.5zm3.9 2.3V807c0-1 .7-1.6 1.5-1.6.9 0 1.3.4 1.3 1.4v4.1h1.2v-4.1c0-1.5-.9-2.4-2.2-2.4-.8 0-1.4.3-1.9 1l-.1-.8h-1v6.2h1.2zm8.4.2c-1.7 0-3.1-1.1-3.1-3.3s1.4-3.3 3.1-3.3 3.1 1.1 3.1 3.3-1.3 3.3-3.1 3.3zm0-5.7c-1.1 0-1.9.8-1.9 2.4 0 1.5.8 2.4 1.9 2.4s1.9-.8 1.9-2.4-.8-2.4-1.9-2.4zm4.4-.7v8.4h1.2v-3c.4.6 1.1 1 2 1 1.6 0 2.8-1.2 2.8-3.3s-1.1-3.3-2.8-3.3c-1 0-1.7.4-2.1 1l-.2-.8h-.9zm4.8 3c0 1.6-.7 2.4-1.8 2.4s-1.9-.9-1.9-2.4.8-2.2 1.9-2.2c1 0 1.8.7 1.8 2.2zm4.6 2.4c.2 0 .4 0 .7-.1v1c-.3.1-.6.1-.9.1-1.1 0-1.7-.7-1.7-1.7v-3.7h-.9v-1h.9l.1-1.5h1.1v1.5h1.3v1h-1.3v3.7c0 .5.2.7.7.7zm3-6.5v-1.4h-1.3v1.4h1.3zm-.1 1.1h-1.2v6.2h1.2v-6.2zm4.3 5.4c.8 0 1.3-.4 1.5-1.2h1.3c-.2 1.2-1.2 2.2-2.7 2.2-1.6 0-2.9-1.1-2.9-3.3 0-2.1 1.2-3.3 2.9-3.3 1.4 0 2.5.8 2.7 2h-1.3c-.2-.7-.7-1.1-1.4-1.1-1 0-1.7.8-1.7 2.4-.1 1.6.6 2.3 1.6 2.3zm5-3.7c.1-.6.5-1 1.4-1s1.4.4 1.4 1.2v.3l-1.8.3c-1.7.3-2.4.9-2.4 2.1 0 1 .8 1.8 2.2 1.8a2.65 2.65 0 0 0 2.1-1l.2.9h.9v-4.3c0-1.3-.9-2.2-2.5-2.2s-2.6.8-2.7 1.9h1.2zm2.9 1.4v.8c0 .9-.9 1.5-1.8 1.5-.8 0-1.2-.3-1.2-.9s.3-.9 1.4-1.1l1.6-.3zm7.6-5.5v1.4h-1.3v-1.4h1.3zm-1.3 2.4h1.2v6.2h-1.2v-6.2zm4 6.2V807c0-1 .7-1.6 1.5-1.6s1.3.4 1.3 1.4v4.1h1.1v-4.1c0-1.5-.8-2.4-2.2-2.4-.7 0-1.4.3-1.9 1l-.1-.8h-.9v6.2h1.2zm7.8-.8c.2 0 .4 0 .7-.1v1c-.3.1-.6.1-.8.1-1.1 0-1.7-.7-1.7-1.7v-3.7h-.9v-1h.9l.1-1.5h1.1v1.5h1.3v1h-1.3v3.7c-.1.5.1.7.6.7zm5.9-1c-.2.6-.8 1-1.5 1-1.1 0-1.8-.6-1.9-2.1h4.8c0-2.5-1.2-3.6-2.9-3.6s-3 1.1-3 3.3 1.3 3.3 3.1 3.3c1.5 0 2.5-.8 2.8-2h-1.4zm-3.3-2c.2-1.2.9-1.7 1.8-1.7 1 0 1.6.6 1.7 1.7h-3.5zm8.8 6.2c-1.7 0-2.6-.8-2.8-1.9h1.2c.1.6.6 1 1.5 1 1.2 0 1.8-.6 1.8-1.6v-.8c-.4.5-1.1.8-2.1.8-1.5 0-2.8-1.1-2.8-3.1s1.1-3.2 2.8-3.2c1 0 1.6.4 2 1l.2-.8h.9v6.1c.2 1.4-.9 2.5-2.7 2.5zm-.1-7.8c-1.1 0-1.8.7-1.8 2.2 0 1.3.8 2.1 1.8 2.1 1.2 0 1.9-.8 1.9-2 0-1.5-.8-2.3-1.9-2.3zm5.8 5.4v-3.1c0-1.6.7-2.2 1.5-2.2.3 0 .5 0 .7.1v-1.2c-.2 0-.4-.1-.7-.1-.7 0-1.2.4-1.6 1.1l-.2-.9h-.9v6.2h1.2zm5.5-5.5c-.9 0-1.3.4-1.4 1h-1.2c.1-1.2 1.1-1.9 2.7-1.9s2.5.9 2.5 2.2v4.3h-1l-.1-.9c-.4.6-1.1 1-2.1 1-1.4 0-2.2-.8-2.2-1.8 0-1.1.7-1.8 2.4-2.1l1.8-.3v-.3c.1-.8-.5-1.2-1.4-1.2zm1.5 3.2v-.8l-1.6.3c-1.1.2-1.4.5-1.4 1.1s.4.9 1.2.9c.9 0 1.8-.6 1.8-1.5zm5.5 1.4c-.4.1-.5.1-.7.1-.4 0-.7-.2-.7-.7v-3.7h1.4v-1h-1.4v-1.5h-1.1l-.1 1.5h-.9v1h.9v3.7c0 1 .6 1.7 1.7 1.7.3 0 .5 0 .9-.1v-1zm2.3-7.7v1.4h-1.3v-1.4h1.3zm-1.2 2.4h1.2v6.2h-1.2v-6.2zm2.5 3.1c0 2.2 1.3 3.3 3.1 3.3s3.1-1.1 3.1-3.3-1.4-3.3-3.1-3.3-3.1 1.1-3.1 3.3zm1.2 0c0-1.6.8-2.4 1.9-2.4s1.9.8 1.9 2.4c0 1.5-.8 2.4-1.9 2.4s-1.9-.9-1.9-2.4zm7.4-.7v3.9h-1.2v-6.2h.9l.1.8c.4-.6 1.1-1 1.9-1 1.4 0 2.2.8 2.2 2.4v4.1h-1.2v-4.1c0-.9-.5-1.4-1.3-1.4-.7-.1-1.4.5-1.4 1.5zM807 810.7h-3.8v-.9a20.73 20.73 0 0 0 1.4-1.3c.4-.4.7-.7.9-1s.4-.5.5-.7.2-.5.2-.7c0-.3-.1-.5-.3-.7s-.4-.3-.7-.3-.6.1-.7.3c-.2.2-.2.4-.2.8h-1c0-.4.1-.7.2-1 .2-.3.4-.5.7-.6s.6-.2 1-.2c.6 0 1 .2 1.4.5.3.3.5.7.5 1.2 0 .4-.1.7-.3 1.1-.2.3-.4.7-.8 1.1-.2.3-.5.5-.8.8l-1 1h2.8v.6zm-3.9 1.5c.6.3 1.3.4 2 .4s1.4-.1 2-.4 1.1-.6 1.6-1.1.8-1 1.1-1.6.4-1.3.4-2-.1-1.3-.4-1.9-.6-1.2-1.1-1.6c-.5-.5-1-.8-1.6-1.1s-1.3-.4-2-.4-1.3.1-2 .4c-.6.3-1.2.6-1.6 1.1-.5.5-.8 1-1.1 1.6s-.4 1.3-.4 1.9c0 .7.1 1.3.4 2 .3.6.6 1.2 1.1 1.6.4.5 1 .9 1.6 1.1z" />
        </g>
        <path
            d="M465.2 624h1.5v30.6c0 8.4 6.8 15.2 15.2 15.2h32v1.5h-32c-6.8 0-12.6-4-15.2-9.8V717c0 8.4 6.8 15.2 15.2 15.2h32v1.5h-32c-9.3 0-16.8-7.5-16.8-16.8V624z"
            class="t" />
    </g>
    <path d="M509 650h78c10.5 0 19 8.5 19 19h0c0 10.5-8.5 19-19 19h-78c-10.5 0-19-8.5-19-19h0c0-10.5 8.5-19 19-19z"
        class="t" />
    <g class="x">
        <path
            d="M514.9 673l-3.5-8.6H510l-3.6 8.6h1.3l.9-2.2h4.1l.9 2.2h1.3zm-4.2-7.4l1.6 4.2H509l1.7-4.2zm5.1-1.2v8.6h1.2v-3.1h1.5c2.3 0 3.4-1 3.4-2.7 0-1.8-1.2-2.8-3.4-2.8h-2.7zm2.8 1c1.4 0 2.1.7 2.1 1.8s-.6 1.8-2.1 1.8H517v-3.6h1.6zm4.8-1v8.6h1.2v-8.6h-1.2z" />
        <use xlink:href="#n" />
        <path
            d="M539.8 673v-3.8c0-1 .7-1.6 1.5-1.6.9 0 1.3.4 1.3 1.4v4.1h1.2V669c0-1.5-.9-2.4-2.2-2.4-.7 0-1.4.3-1.8.9v-3.1h-1.2v8.6h1.2z" />
        <use xlink:href="#o" />
        <path
            d="M553.2 673v-3.9c0-1 .7-1.6 1.5-1.6.9 0 1.3.4 1.3 1.4v4.1h1.2v-4.1c0-1.5-.9-2.4-2.2-2.4-.7 0-1.4.3-1.9 1l-.1-.8h-.9v6.2h1.1zm5.6.4c.2 1.2 1.2 1.9 2.8 1.9 1.8 0 2.9-1.1 2.9-2.5v-6.1h-.9l-.2.8c-.4-.6-1.1-1-2-1-1.7 0-2.8 1.2-2.8 3.2s1.3 3.1 2.8 3.1c1 0 1.7-.3 2.1-.8v.8c0 1-.6 1.6-1.8 1.6-.9 0-1.4-.4-1.5-1h-1.4zm.9-3.6c0-1.5.8-2.2 1.8-2.2 1.1 0 1.9.8 1.9 2.2 0 1.3-.7 2-1.9 2-1 0-1.8-.7-1.8-2z" />
        <use xlink:href="#p" />
        <path d="M574.3 664.4h-1.2v8.6h1.2v-8.6z" />
        <use xlink:href="#q" />
        <path
            d="M583 673.4c.2 1.2 1.2 1.9 2.8 1.9 1.8 0 2.9-1.1 2.9-2.5v-6.1h-.9l-.2.8c-.4-.6-1.1-1-2-1-1.7 0-2.8 1.2-2.8 3.2s1.3 3.1 2.8 3.1c1 0 1.7-.3 2.1-.8v.8c0 1-.6 1.6-1.8 1.6-.9 0-1.4-.4-1.5-1H583zm.9-3.6c0-1.5.8-2.2 1.8-2.2 1.1 0 1.9.8 1.9 2.2 0 1.3-.7 2-1.9 2-.9 0-1.8-.7-1.8-2zm-117-59.6c2.3 0 4.1-1.6 4.1-4.5 0-3-1.8-4.5-4.1-4.5s-4.1 1.6-4.1 4.5c0 2.8 1.7 4.5 4.1 4.5zm0-1c-1.7 0-2.9-1.2-2.9-3.5s1.2-3.5 2.9-3.5 2.9 1.2 2.9 3.5-1.2 3.5-2.9 3.5zm12.9.8l-3.5-8.6h-1.4l-3.6 8.6h1.3l.9-2.2h4.1l.9 2.2h1.3zm-4.3-7.4l1.6 4.2h-3.3l1.7-4.2zm4.7 5c.2 1.6 1.6 2.6 3.5 2.6 2.1 0 3.4-1.2 3.4-2.6 0-1.3-.7-2-3.1-2.7-2-.6-2.3-.9-2.3-1.5s.6-1.2 1.9-1.2 2 .5 2.2 1.3h1.3c-.2-1.5-1.6-2.3-3.4-2.3-2 0-3.1 1-3.1 2.2s.6 1.9 2.6 2.4c2.3.6 2.7 1 2.7 1.8s-.7 1.5-2.2 1.5c-1.3 0-2.1-.6-2.2-1.6h-1.3zm11.9-6.2v8.6h2.7c2.5 0 4.3-1.5 4.3-4.3 0-3-1.7-4.3-4.2-4.3h-2.8zm2.8.9c1.8 0 3 1.1 3 3.3s-1.1 3.3-3 3.3h-1.6v-6.7h1.6zm6.9.4v-1.4h-1.3v1.4h1.3zm-.1 7.3v-6.2h-1.2v6.2h1.2zm8.2-8.7c-.3-.1-.7-.1-1.1-.1-.6 0-1 .2-1.2.5-.5-.2-1.2-.4-1.8-.4-1.4 0-2 .9-2 1.9v.5h-.9v1h.9v5.3h1.2v-5.3h2.3v5.3h1.2v-5.3h1.3v-1h-1.3v-.9c0-.5.2-.6.7-.6.2 0 .6 0 .9.1v-1zm-2.7 2.5h-2.3v-.6c0-.6.3-.9 1-.9.6 0 1 .1 1.3.2v.4.9zm13.4-2.4h-7v1.1h2.9v7.5h1.2v-7.5h2.9v-1.1z" />
        <use xlink:href="#q" x="-55.4" y="-63" />
        <use xlink:href="#q" x="-48.3" y="-63" />
        <path
            d="M536 601.4h-1.2v8.6h1.2v-8.6zm1.2 6.8c.1 1.2 1.1 2 2.7 2 1.7 0 2.6-.8 2.6-2 0-1.3-1-1.7-2.4-2-1.2-.3-1.5-.5-1.5-1 0-.4.4-.8 1.2-.8s1.3.3 1.4.9h1.2c-.2-1.1-1.2-1.8-2.6-1.8-1.6 0-2.4.7-2.4 1.8 0 .9.6 1.5 2.1 1.8 1.1.3 1.8.4 1.8 1.2 0 .5-.5 1-1.4 1s-1.4-.3-1.5-1.1h-1.2zm10.8 0c-.2.6-.8 1-1.5 1-1 0-1.8-.6-1.9-2.1h4.8c0-2.5-1.2-3.6-2.9-3.6s-3 1.1-3 3.3 1.3 3.3 3.1 3.3c1.5 0 2.5-.8 2.8-2H548zm-3.4-2c.2-1.2.9-1.7 1.8-1.7 1 0 1.6.6 1.7 1.7h-3.5zm8.9 2.9c-.3.1-.5.1-.7.1-.4 0-.7-.2-.7-.7v-3.7h1.3v-1h-1.3v-1.5H551l-.1 1.5h-.9v1h.9v3.7c0 1 .6 1.7 1.7 1.7.3 0 .5 0 .9-.1v-1z" />
    </g>
    <path d="M509 716h151c10.5 0 19 8.5 19 19h0c0 10.5-8.5 19-19 19H509c-10.5 0-19-8.5-19-19h0c0-10.5 8.5-19 19-19z"
        class="t" />
    <g class="x">
        <path
            d="M500.2 730.4v8.6h3.1c2.2 0 3.3-.9 3.3-2.4 0-1.1-.8-2-1.7-2.1.8-.2 1.4-1 1.4-1.8 0-1.4-1-2.3-3-2.3h-3.1zm3.3 4.5c1.2 0 1.8.6 1.8 1.6 0 .9-.6 1.4-1.8 1.4h-2v-3.1h2zm-.1-3.6c1.1 0 1.7.5 1.7 1.4 0 .8-.6 1.4-1.6 1.4h-2.1v-2.7h2z" />
        <use xlink:href="#o" x="-37.5" y="66" />
        <use xlink:href="#r" />
        <path
            d="M522.4 739v-3.1l2.8 3.1h1.5l-3.2-3.5 2.8-2.7h-1.5l-2.4 2.4v-4.8h-1.2v8.6h1.2zm12.6-6.2l-1.3 5-1.5-5h-1.4l-1.5 5-1.3-5h-1.2l1.8 6.2h1.4l1.5-4.9 1.5 4.9h1.3l1.8-6.2H535zm3 1.7c.1-.6.5-1 1.4-1s1.4.4 1.4 1.2v.3l-1.8.3c-1.7.3-2.4.9-2.4 2.1 0 1 .8 1.8 2.2 1.8a2.65 2.65 0 0 0 2.1-1l.1.9h.9v-4.3c0-1.3-.9-2.2-2.5-2.2s-2.6.8-2.7 1.9h1.3zm2.9 1.4v.8c0 .9-.9 1.5-1.8 1.5-.8 0-1.2-.3-1.2-.9s.3-.9 1.4-1.1l1.6-.3zm3.9 3.1v-3.1c0-1.6.7-2.2 1.5-2.2.3 0 .5 0 .7.1v-1.2c-.1 0-.4-.1-.7-.1-.7 0-1.2.4-1.6 1.1l-.2-.9h-.9v6.2h1.2zm8.6 0v-8.6h-1.2v3.2c-.4-.6-1.1-1-2-1-1.7 0-2.8 1.1-2.8 3.3 0 2.1 1.2 3.3 2.8 3.3 1 0 1.7-.4 2.1-1.1l.2.9h.9zm-4.7-3.1c0-1.6.7-2.4 1.8-2.4 1.2 0 1.9.9 1.9 2.4 0 1.3-.7 2.2-1.9 2.2-1.1.1-1.8-.7-1.8-2.2z" />
        <use xlink:href="#n" x="28.8" y="66" />
        <use xlink:href="#q" x="-8.5" y="66" />
        <path
            d="M575.7 739v-3.8c0-.9.7-1.6 1.5-1.6s1.2.4 1.2 1.3v4.1h1.2v-3.8c0-.9.6-1.6 1.5-1.6.8 0 1.2.4 1.2 1.3v4.1h1.2v-4.2c0-1.5-.8-2.2-2.1-2.2-.8 0-1.5.2-2 1-.3-.6-1-1-1.8-1-.7 0-1.4.3-1.8.9l-.1-.7h-.9v6.2h.9zm9.4-6.2v8.4h1.2v-3c.4.6 1.1 1 2 1 1.6 0 2.8-1.2 2.8-3.3s-1.1-3.3-2.7-3.3c-1 0-1.7.4-2.1 1l-.2-.8h-1zm4.8 3c0 1.6-.7 2.4-1.8 2.4s-1.9-.9-1.9-2.4.9-2.2 1.9-2.2 1.8.7 1.8 2.2z" />
        <use xlink:href="#o" x="46.9" y="66" />
        <use xlink:href="#s" />
        <path
            d="M604.1 731.7v-1.4h-1.3v1.4h1.3zm-.1 7.3v-6.2h-1.2v6.2h1.2zm2.6 0l.2-.8c.4.6 1.1 1 2 1 1.6 0 2.8-1.2 2.8-3.3s-1.1-3.3-2.7-3.3c-1 0-1.7.4-2.1 1v-3.3h-1.2v8.6h1zm3.9-3.2c0 1.6-.7 2.4-1.8 2.4s-1.9-.9-1.9-2.4.9-2.2 1.9-2.2 1.8.7 1.8 2.2zm3.7-4.1v-1.4h-1.3v1.4h1.3zm0 7.3v-6.2H613v6.2h1.2zm2.8-8.6h-1.2v8.6h1.2v-8.6zm2.9 1.3v-1.4h-1.3v1.4h1.3zm-.1 7.3v-6.2h-1.2v6.2h1.2z" />
        <use xlink:href="#s" x="22.5" />
        <path
            d="M630.6 732.8h-1.2l-1.8 5.3-1.8-5.3h-1.2l2.3 6.2h.4c-.4 1-.5 1.4-1.1 1.4-.2 0-.4 0-.6-.1v.9c.3.1.5.1.7.1 1.2 0 1.6-.9 2-2.3l2.3-6.2z" />
        <use xlink:href="#n" x="105.3" y="66" />
        <path
            d="M645 739v-3.8c0-1 .7-1.6 1.5-1.6.9 0 1.3.4 1.3 1.4v4.1h1.2V735c0-1.5-.9-2.4-2.2-2.4-.7 0-1.4.3-1.8.9v-3.1h-1.2v8.6h1.2z" />
        <use xlink:href="#p" x="84.5" y="66" />
        <use xlink:href="#r" x="143" />
        <path d="M665.4 739v-3.1l2.8 3.1h1.5l-3.2-3.5 2.8-2.7h-1.5l-2.4 2.4v-4.8h-1.2v8.6h1.2z" />
    </g>
</svg>